<svg id="svg" version="1.1" xmlns="http://www.w3.org/2000/svg" xmlns:xlink="http://www.w3.org/1999/xlink" width="400" height="472.99270072992704" viewBox="0, 0, 400,472.99270072992704"><g id="svgg"><path id="path0" d="M99.425 159.936 C 98.181 160.179,97.200 161.530,97.200 163.000 C 97.200 163.930,97.013 164.400,96.643 164.400 C 96.059 164.400,95.600 165.231,95.600 166.289 C 95.600 166.631,95.312 167.122,94.960 167.380 C 94.530 167.694,94.250 168.726,94.105 170.524 C 93.954 172.411,93.730 173.200,93.345 173.200 C 92.970 173.200,92.800 173.732,92.800 174.904 C 92.800 176.174,92.597 176.735,92.000 177.107 C 91.448 177.452,91.200 178.040,91.200 179.003 C 91.200 179.912,91.011 180.400,90.658 180.400 C 90.280 180.400,90.039 181.218,89.864 183.100 C 89.705 184.810,89.390 185.963,89.006 186.244 C 88.673 186.488,88.400 187.232,88.400 187.897 C 88.400 188.770,88.177 189.165,87.600 189.316 C 86.944 189.487,86.800 189.862,86.800 191.391 C 86.800 192.516,86.562 193.495,86.200 193.857 C 85.804 194.253,85.600 195.249,85.600 196.782 C 85.600 198.770,85.484 199.137,84.800 199.316 C 84.284 199.451,84.000 199.862,84.000 200.474 C 84.000 200.995,83.640 201.730,83.200 202.107 C 82.582 202.636,82.400 203.287,82.400 204.968 C 82.400 206.368,82.186 207.357,81.800 207.743 C 81.470 208.073,81.200 208.965,81.200 209.725 C 81.200 210.770,81.005 211.158,80.400 211.316 C 79.811 211.470,79.600 211.862,79.600 212.799 C 79.600 213.500,79.240 214.531,78.800 215.091 C 78.190 215.866,78.000 216.714,78.000 218.654 C 78.000 220.650,77.870 221.200,77.400 221.200 C 76.985 221.200,76.800 221.617,76.800 222.553 C 76.800 223.570,76.601 223.959,76.000 224.116 C 75.342 224.288,75.200 224.662,75.200 226.218 C 75.200 227.493,74.991 228.265,74.559 228.580 C 74.193 228.848,73.824 229.889,73.697 231.015 C 73.575 232.097,73.233 233.224,72.938 233.519 C 72.642 233.815,72.400 234.494,72.400 235.029 C 72.400 235.589,72.166 236.000,71.847 236.000 C 71.158 236.000,70.813 237.231,70.805 239.713 C 70.802 241.028,70.615 241.696,70.209 241.852 C 69.855 241.988,69.512 242.869,69.357 244.040 C 69.189 245.307,68.903 246.000,68.548 246.000 C 68.175 246.000,68.000 246.511,68.000 247.600 C 68.000 248.696,67.826 249.200,67.447 249.200 C 66.762 249.200,66.413 250.429,66.405 252.857 C 66.402 254.135,66.213 254.786,65.800 254.945 C 65.470 255.071,65.200 255.542,65.200 255.991 C 65.200 256.440,64.840 257.116,64.400 257.493 C 63.776 258.027,63.600 258.673,63.600 260.427 C 63.600 262.168,63.419 262.840,62.800 263.400 C 62.210 263.934,62.000 264.632,62.000 266.062 C 62.000 267.518,61.851 268.000,61.400 268.000 C 60.985 268.000,60.800 268.417,60.800 269.353 C 60.800 270.370,60.601 270.759,60.000 270.916 C 59.296 271.100,59.200 271.462,59.200 273.916 C 59.200 276.370,59.104 276.732,58.400 276.916 C 57.813 277.070,57.600 277.462,57.600 278.391 C 57.600 279.087,57.330 279.927,57.000 280.257 C 56.670 280.587,56.400 281.543,56.400 282.382 C 56.400 283.570,56.224 283.953,55.600 284.116 C 54.906 284.297,54.800 284.662,54.800 286.866 C 54.800 288.974,54.664 289.493,54.000 289.907 C 53.490 290.226,53.200 290.840,53.200 291.603 C 53.200 292.400,53.000 292.800,52.600 292.800 C 52.147 292.800,52.000 293.289,52.000 294.800 C 52.000 296.267,51.787 297.013,51.200 297.600 C 50.645 298.155,50.400 298.933,50.400 300.138 C 50.400 301.368,50.166 302.088,49.600 302.600 C 49.160 302.998,48.800 303.544,48.800 303.813 C 48.800 304.082,48.530 304.526,48.200 304.800 C 47.760 305.166,47.600 306.136,47.600 308.449 C 47.600 311.333,47.532 311.600,46.800 311.600 C 46.178 311.600,46.000 311.867,46.000 312.800 C 46.000 313.467,45.644 314.356,45.200 314.800 C 44.716 315.284,44.400 316.133,44.400 316.951 C 44.400 317.694,44.130 318.526,43.800 318.800 C 43.417 319.118,43.200 320.003,43.200 321.249 C 43.200 322.667,42.981 323.419,42.400 324.000 C 41.960 324.440,41.600 325.101,41.600 325.469 C 41.600 325.836,41.324 326.441,40.988 326.814 C 40.651 327.186,40.264 328.460,40.128 329.645 C 39.992 330.830,39.637 331.944,39.340 332.120 C 39.015 332.312,38.800 333.150,38.800 334.220 C 38.800 335.467,38.560 336.240,38.000 336.800 C 37.560 337.240,37.200 338.050,37.200 338.600 C 37.200 339.190,36.971 339.600,36.641 339.600 C 36.240 339.600,35.999 340.417,35.792 342.477 C 35.633 344.059,35.255 345.602,34.952 345.905 C 34.648 346.209,34.400 347.143,34.400 347.982 C 34.400 349.170,34.224 349.553,33.600 349.716 C 32.993 349.875,32.800 350.262,32.800 351.320 C 32.800 352.190,32.575 352.801,32.200 352.945 C 31.767 353.111,31.600 353.790,31.600 355.391 C 31.600 357.113,31.421 357.761,30.800 358.293 C 30.360 358.670,30.000 359.388,30.000 359.889 C 30.000 360.390,29.640 361.160,29.200 361.600 C 28.619 362.181,28.400 362.933,28.400 364.351 C 28.400 365.597,28.183 366.482,27.800 366.800 C 27.403 367.130,27.200 368.025,27.200 369.449 C 27.200 371.333,27.101 371.600,26.400 371.600 C 25.855 371.600,25.600 371.867,25.600 372.437 C 25.600 372.897,25.240 373.731,24.800 374.291 C 24.190 375.066,24.000 375.914,24.000 377.854 C 24.000 379.850,23.870 380.400,23.400 380.400 C 22.985 380.400,22.800 380.817,22.800 381.753 C 22.800 382.770,22.601 383.159,22.000 383.316 C 21.332 383.491,21.200 383.862,21.200 385.563 C 21.200 387.031,21.045 387.600,20.647 387.600 C 19.962 387.600,19.613 388.829,19.605 391.257 C 19.602 392.535,19.413 393.186,19.000 393.345 C 18.670 393.471,18.400 393.991,18.400 394.499 C 18.400 395.007,18.040 395.683,17.600 396.000 C 16.987 396.442,16.800 397.035,16.800 398.544 C 16.800 399.887,16.597 400.661,16.159 400.980 C 15.801 401.242,15.426 402.272,15.308 403.318 C 15.192 404.346,14.850 405.392,14.549 405.643 C 14.247 405.893,14.000 406.526,14.000 407.049 C 14.000 407.572,13.640 408.360,13.200 408.800 C 12.552 409.448,12.400 410.133,12.400 412.400 C 12.400 414.527,12.266 415.200,11.843 415.200 C 11.239 415.200,10.800 416.038,10.800 417.190 C 10.800 417.588,10.530 418.018,10.200 418.145 C 9.844 418.281,9.600 418.883,9.600 419.624 C 9.600 420.312,9.240 421.331,8.800 421.891 C 8.226 422.621,8.000 423.514,8.000 425.054 C 8.000 426.695,7.859 427.200,7.400 427.200 C 7.026 427.200,6.800 427.578,6.800 428.204 C 6.800 428.756,6.440 429.516,6.000 429.893 C 5.371 430.431,5.200 431.073,5.200 432.889 C 5.200 434.667,5.015 435.385,4.400 436.000 C 3.867 436.533,3.600 437.333,3.600 438.400 C 3.600 439.556,3.433 440.000,3.000 440.000 C 2.524 440.000,2.400 440.578,2.400 442.800 L 2.400 445.600 3.637 445.600 C 4.317 445.600,5.331 445.960,5.891 446.400 C 6.761 447.084,7.514 447.200,11.091 447.200 C 14.668 447.200,15.421 447.316,16.291 448.000 C 17.165 448.687,17.914 448.800,21.605 448.800 C 24.937 448.800,26.014 448.935,26.400 449.400 C 26.791 449.871,27.907 450.000,31.587 450.000 C 35.768 450.000,36.354 450.087,37.000 450.800 C 37.641 451.508,38.232 451.600,42.130 451.600 C 45.766 451.600,46.672 451.722,47.309 452.300 C 47.927 452.860,48.988 453.027,52.620 453.134 C 55.915 453.231,57.287 453.423,57.628 453.834 C 58.294 454.636,64.800 454.648,64.800 453.847 C 64.800 453.542,65.160 453.199,65.600 453.084 C 66.268 452.909,66.400 452.538,66.400 450.837 C 66.400 449.363,66.554 448.800,66.957 448.800 C 67.602 448.800,68.000 447.948,68.000 446.567 C 68.000 445.974,68.232 445.600,68.600 445.600 C 69.065 445.600,69.200 445.074,69.200 443.262 C 69.200 441.432,69.374 440.767,70.000 440.200 C 70.610 439.648,70.800 438.968,70.800 437.338 C 70.800 435.780,70.951 435.200,71.355 435.200 C 71.671 435.200,72.021 434.611,72.166 433.840 C 72.306 433.092,72.686 432.260,73.011 431.991 C 73.425 431.647,73.600 430.687,73.600 428.754 C 73.600 426.440,73.726 425.928,74.400 425.507 C 75.035 425.110,75.200 424.574,75.200 422.904 C 75.200 421.330,75.346 420.800,75.782 420.800 C 76.128 420.800,76.468 420.244,76.621 419.428 C 76.763 418.673,77.131 417.959,77.439 417.840 C 77.845 417.685,78.000 416.865,78.000 414.875 C 78.000 412.632,78.148 411.990,78.800 411.400 C 79.328 410.922,79.600 410.168,79.600 409.181 C 79.600 408.221,79.815 407.603,80.200 407.455 C 80.542 407.324,80.800 406.727,80.800 406.066 C 80.800 405.429,81.160 404.450,81.600 403.891 C 82.216 403.107,82.400 402.268,82.400 400.237 C 82.400 398.250,82.537 397.600,82.957 397.600 C 83.569 397.600,84.000 396.759,84.000 395.567 C 84.000 394.557,88.782 394.414,89.600 395.400 C 89.988 395.868,91.085 396.000,94.587 396.000 C 98.568 396.000,99.158 396.091,99.800 396.800 C 100.441 397.508,101.032 397.600,104.930 397.600 C 108.566 397.600,109.472 397.722,110.109 398.300 C 110.732 398.864,111.785 399.024,115.541 399.125 C 118.857 399.215,120.321 399.407,120.619 399.791 C 120.849 400.088,121.569 400.392,122.219 400.466 C 123.176 400.575,123.424 400.813,123.529 401.724 C 123.600 402.342,123.915 402.946,124.229 403.066 C 124.980 403.355,124.961 404.968,124.200 405.600 C 123.746 405.977,123.600 406.997,123.600 409.800 C 123.600 412.603,123.746 413.623,124.200 414.000 C 125.049 414.705,125.039 422.651,124.187 423.776 C 123.411 424.803,123.419 428.162,124.200 428.943 C 124.713 429.456,124.800 431.849,124.800 445.499 L 124.800 461.456 125.803 462.328 C 126.459 462.898,127.337 463.200,128.341 463.200 C 129.368 463.200,130.116 463.465,130.600 464.000 C 131.241 464.708,131.832 464.800,135.730 464.800 C 139.183 464.800,140.288 464.937,140.834 465.431 C 141.348 465.896,142.753 466.123,146.166 466.291 C 149.336 466.447,150.943 466.690,151.249 467.059 C 151.582 467.460,152.978 467.600,156.649 467.600 C 160.614 467.600,161.600 467.711,161.600 468.157 C 161.600 469.025,162.537 469.200,167.190 469.200 C 170.438 469.200,171.566 469.334,171.720 469.737 C 171.869 470.123,173.279 470.346,176.773 470.534 C 180.011 470.708,181.921 470.992,182.529 471.390 C 183.350 471.928,183.582 471.909,184.918 471.193 C 185.731 470.757,186.668 470.400,186.999 470.400 C 187.515 470.400,187.599 469.222,187.595 462.100 C 187.589 453.353,187.449 452.000,186.553 452.000 C 185.749 452.000,185.812 448.470,186.633 447.564 C 187.528 446.574,187.543 442.440,186.653 441.789 C 186.073 441.365,186.000 439.906,186.000 428.705 C 186.000 418.114,185.906 416.020,185.413 415.611 C 184.931 415.210,184.824 413.552,184.815 406.262 C 184.793 389.958,184.429 380.695,183.782 379.980 C 183.300 379.447,183.200 377.272,183.200 367.301 C 183.200 354.983,183.123 354.000,182.157 354.000 C 181.370 354.000,181.405 350.538,182.200 349.743 C 182.751 349.192,183.029 347.221,182.891 344.851 C 182.861 344.330,182.558 343.596,182.218 343.220 C 181.690 342.636,181.600 340.814,181.600 330.697 C 181.600 320.706,181.506 318.763,181.000 318.257 C 180.259 317.516,180.163 311.758,180.866 310.215 C 181.216 309.447,181.218 308.970,180.875 308.297 C 180.573 307.702,180.366 303.098,180.261 294.632 C 180.121 283.418,180.023 281.806,179.451 281.388 C 178.874 280.966,178.800 279.519,178.800 268.718 C 178.800 257.032,178.767 256.494,178.000 255.800 C 177.013 254.907,176.962 253.262,177.900 252.576 C 178.903 251.841,178.902 246.817,177.899 245.709 C 177.266 245.010,177.200 243.781,177.200 232.656 C 177.200 222.108,177.115 220.342,176.600 220.145 C 175.839 219.853,175.743 213.601,176.481 212.419 C 176.852 211.825,176.854 211.438,176.489 210.725 C 176.186 210.132,175.977 207.020,175.908 202.067 C 175.815 195.380,175.710 194.268,175.131 193.846 C 174.505 193.389,174.505 193.329,175.131 192.935 C 176.128 192.306,176.103 185.622,175.100 184.512 C 174.493 183.840,174.400 182.860,174.400 177.111 C 174.400 169.922,174.425 170.000,172.099 170.000 C 171.529 170.000,170.727 169.696,170.317 169.325 C 169.738 168.801,168.550 168.611,164.993 168.475 C 161.773 168.352,160.279 168.137,159.958 167.750 C 159.622 167.345,158.349 167.200,155.114 167.200 C 151.332 167.200,150.586 167.090,149.709 166.400 C 148.822 165.702,148.086 165.600,143.946 165.600 C 140.219 165.600,139.200 165.484,139.200 165.058 C 139.200 164.478,135.790 164.008,131.549 164.003 C 130.039 164.001,129.134 163.803,128.800 163.400 C 128.411 162.931,127.308 162.800,123.751 162.800 C 119.733 162.800,119.106 162.706,118.400 162.000 C 117.696 161.296,117.067 161.200,113.144 161.200 C 109.759 161.200,108.581 161.063,108.244 160.629 C 107.821 160.086,101.286 159.572,99.425 159.936 M123.294 307.100 C 123.234 334.325,123.095 357.005,122.985 357.500 C 122.722 358.682,120.810 358.749,120.093 357.600 C 119.640 356.874,119.160 356.800,114.941 356.800 C 110.982 356.800,110.212 356.696,109.779 356.104 C 109.357 355.527,108.462 355.383,104.535 355.261 C 101.028 355.152,99.717 354.970,99.480 354.557 C 99.282 354.212,98.482 354.000,97.380 354.000 C 95.867 354.000,95.600 353.880,95.600 353.200 C 95.600 352.760,95.851 352.400,96.157 352.400 C 96.802 352.400,97.200 351.548,97.200 350.167 C 97.200 349.574,97.432 349.200,97.800 349.200 C 98.261 349.200,98.400 348.689,98.400 347.000 C 98.400 345.394,98.549 344.800,98.953 344.800 C 99.688 344.800,99.988 343.544,99.995 340.444 C 99.999 338.567,100.170 337.764,100.641 337.420 C 101.000 337.157,101.374 336.127,101.493 335.076 C 101.630 333.857,101.896 333.200,102.252 333.200 C 102.625 333.200,102.800 332.688,102.800 331.600 C 102.800 330.533,103.067 329.733,103.600 329.200 C 104.275 328.525,104.400 327.867,104.400 325.000 C 104.400 322.372,104.526 321.600,104.953 321.600 C 105.584 321.600,105.987 320.400,105.995 318.500 C 105.998 317.614,106.191 317.200,106.600 317.200 C 107.019 317.200,107.200 316.778,107.200 315.800 C 107.200 314.933,107.505 314.095,108.000 313.600 C 108.656 312.944,108.800 312.267,108.800 309.843 C 108.800 307.583,108.942 306.831,109.400 306.655 C 109.786 306.507,110.001 305.886,110.003 304.913 C 110.004 304.077,110.361 302.863,110.800 302.200 C 111.237 301.540,111.596 300.505,111.597 299.900 C 111.599 299.295,111.960 298.440,112.400 298.000 C 113.067 297.333,113.200 296.667,113.200 294.000 C 113.200 291.422,113.317 290.800,113.800 290.800 C 114.252 290.800,114.400 290.314,114.400 288.827 C 114.400 287.205,114.542 286.809,115.200 286.600 C 115.771 286.419,116.000 285.995,116.000 285.117 C 116.000 284.435,116.295 283.673,116.663 283.404 C 117.154 283.045,117.374 282.075,117.514 279.666 C 117.633 277.597,117.902 276.247,118.251 275.958 C 118.609 275.660,118.800 274.632,118.800 272.998 C 118.800 270.830,118.907 270.465,119.600 270.284 C 120.154 270.139,120.400 269.738,120.400 268.982 C 120.400 268.380,120.713 267.659,121.095 267.380 C 121.633 266.987,121.825 266.128,121.939 263.606 C 122.044 261.294,122.250 260.279,122.644 260.128 C 122.950 260.010,123.200 259.394,123.200 258.757 C 123.200 258.121,123.246 257.600,123.302 257.600 C 123.358 257.600,123.354 279.875,123.294 307.100 M203.867 411.067 C 203.720 411.213,203.600 423.548,203.600 438.477 L 203.600 465.620 204.628 466.011 C 205.290 466.262,240.095 466.366,302.328 466.301 L 399.000 466.200 399.103 438.500 L 399.205 410.800 301.669 410.800 C 248.025 410.800,204.013 410.920,203.867 411.067 " stroke="none" fill="#8474fc" fill-rule="evenodd"></path><path id="path1" d="M234.733 2.200 C 234.650 2.284,233.364 2.391,231.875 2.439 C 230.387 2.488,229.058 2.706,228.923 2.925 C 228.773 3.168,228.896 3.198,229.238 3.003 C 229.628 2.781,229.678 2.814,229.400 3.111 C 229.154 3.375,226.272 3.590,221.917 3.670 C 215.758 3.783,214.766 3.890,214.317 4.493 C 213.877 5.083,212.967 5.202,208.200 5.293 C 203.978 5.374,202.625 5.523,202.700 5.900 C 202.790 6.349,201.800 6.594,200.530 6.437 C 200.272 6.405,199.822 6.701,199.530 7.096 C 199.239 7.490,198.510 8.028,197.911 8.293 C 197.298 8.563,196.711 9.216,196.568 9.786 C 196.428 10.344,196.046 10.800,195.719 10.800 C 195.392 10.800,195.031 11.160,194.916 11.600 C 194.801 12.040,194.458 12.400,194.153 12.400 C 193.849 12.400,193.600 12.720,193.600 13.111 C 193.600 13.502,193.272 14.103,192.871 14.446 C 192.346 14.896,192.116 15.726,192.047 17.412 C 191.945 19.948,191.755 20.543,191.162 20.177 C 190.952 20.047,190.806 20.089,190.837 20.270 C 190.869 20.452,190.857 20.690,190.811 20.800 C 190.765 20.910,190.653 23.758,190.562 27.130 C 190.471 30.501,190.217 33.595,189.998 34.004 C 189.483 34.965,189.485 37.081,190.000 37.400 C 190.561 37.746,190.507 42.287,189.938 42.638 C 189.633 42.827,189.586 42.746,189.800 42.400 C 190.014 42.054,189.967 41.973,189.662 42.162 C 189.339 42.361,189.200 44.742,189.200 50.080 C 189.200 56.887,189.124 57.767,188.500 58.223 C 187.895 58.665,187.773 59.670,187.600 65.667 C 187.459 70.566,187.266 72.575,186.942 72.514 C 186.213 72.377,186.058 74.384,186.018 84.547 C 185.987 92.266,185.867 94.255,185.390 94.936 C 185.065 95.399,184.800 96.630,184.800 97.671 C 184.800 99.974,183.468 101.600,181.582 101.600 C 180.798 101.600,180.400 101.802,180.400 102.200 C 180.400 102.738,177.473 103.048,173.700 102.907 C 173.425 102.897,173.200 103.068,173.200 103.287 C 173.200 103.506,172.921 103.578,172.579 103.447 C 172.238 103.316,172.057 103.368,172.177 103.563 C 172.473 104.041,171.430 104.400,169.744 104.400 C 168.784 104.400,168.442 104.545,168.642 104.868 C 168.836 105.182,168.714 105.253,168.270 105.082 C 167.863 104.926,167.646 105.015,167.705 105.314 C 167.769 105.644,166.996 105.838,165.300 105.919 C 163.436 106.008,162.800 106.186,162.800 106.619 C 162.800 107.115,157.894 107.562,155.900 107.247 C 155.735 107.221,155.600 107.399,155.600 107.643 C 155.600 107.886,155.339 107.986,155.020 107.863 C 154.633 107.715,154.515 107.833,154.663 108.220 C 154.838 108.675,154.488 108.800,153.043 108.800 C 151.671 108.800,151.200 108.953,151.200 109.400 C 151.200 109.778,150.793 110.015,150.100 110.041 C 147.201 110.148,145.879 110.410,145.459 110.964 C 145.148 111.372,144.175 111.594,142.445 111.651 C 140.398 111.719,139.854 111.874,139.708 112.431 C 139.608 112.813,139.202 113.211,138.806 113.314 C 137.764 113.587,137.818 118.112,138.875 119.068 C 139.521 119.652,139.600 120.464,139.600 126.486 C 139.600 130.923,139.738 133.162,140.003 132.998 C 140.650 132.598,140.771 133.476,140.889 139.400 C 140.981 144.062,141.101 145.000,141.600 145.000 C 142.048 145.000,142.230 145.570,142.319 147.258 C 142.416 149.106,142.580 149.554,143.219 149.721 C 143.743 149.858,144.000 150.270,144.000 150.975 C 144.000 151.553,144.263 152.126,144.585 152.250 C 144.906 152.373,145.279 152.817,145.412 153.237 C 145.545 153.657,145.912 154.000,146.227 154.000 C 146.542 154.000,146.800 154.270,146.800 154.600 C 146.800 154.973,147.178 155.200,147.800 155.200 C 148.385 155.200,148.800 155.430,148.800 155.753 C 148.800 156.498,150.062 156.788,153.324 156.795 C 154.822 156.798,155.958 156.944,155.849 157.120 C 155.031 158.445,164.210 158.915,165.392 157.609 C 165.968 156.972,166.820 156.864,171.927 156.779 C 175.157 156.726,178.250 156.668,178.800 156.651 C 179.350 156.634,180.038 156.346,180.330 156.010 C 180.787 155.483,180.824 155.481,180.600 156.000 C 180.369 156.533,180.400 156.533,180.870 156.000 C 181.697 155.064,185.947 154.981,186.272 155.895 C 186.409 156.283,186.757 156.876,187.044 157.213 C 187.421 157.655,187.582 159.603,187.621 164.212 C 187.678 170.967,187.758 171.499,188.603 170.797 C 189.042 170.433,189.143 171.663,189.182 177.845 C 189.220 183.836,189.344 185.420,189.803 185.767 C 190.253 186.107,190.389 187.555,190.438 192.507 C 190.472 195.976,190.661 198.914,190.857 199.035 C 191.053 199.156,191.117 199.410,191.000 199.600 C 190.883 199.790,190.998 200.075,191.255 200.234 C 191.572 200.430,191.620 200.341,191.403 199.962 C 191.177 199.565,191.212 199.518,191.525 199.804 C 191.811 200.064,191.986 202.594,192.019 206.939 C 192.066 212.993,192.148 213.748,192.835 214.435 C 193.527 215.127,193.600 215.836,193.600 221.869 C 193.600 227.107,193.723 228.673,194.175 229.173 C 194.614 229.657,194.767 231.229,194.821 235.804 C 194.887 241.294,194.965 241.883,195.746 242.788 C 196.294 243.422,196.349 243.584,195.900 243.239 C 195.051 242.588,194.973 242.916,195.784 243.727 C 196.242 244.185,196.379 245.686,196.420 250.718 C 196.468 256.666,196.526 257.140,197.236 257.325 C 197.950 257.512,198.000 257.966,198.000 264.283 C 198.000 269.135,198.141 271.192,198.500 271.579 C 198.906 272.017,198.888 272.056,198.400 271.790 C 197.946 271.542,197.966 271.652,198.479 272.239 C 199.048 272.891,199.169 274.036,199.231 279.341 C 199.296 284.901,199.394 285.749,200.038 286.350 C 200.690 286.957,200.777 287.794,200.819 293.913 C 200.849 298.325,201.020 300.889,201.295 301.059 C 201.570 301.228,201.608 301.122,201.403 300.762 C 201.148 300.315,201.190 300.299,201.606 300.685 C 202.052 301.098,202.448 307.771,202.450 314.900 C 202.450 315.285,202.709 315.600,203.025 315.600 C 203.489 315.600,203.606 316.469,203.633 320.100 C 203.676 325.906,203.744 326.424,204.538 327.004 C 205.074 327.396,205.200 328.214,205.200 331.311 C 205.200 335.261,205.424 336.556,206.042 336.174 C 206.239 336.052,206.421 336.278,206.446 336.676 C 206.472 337.074,206.534 337.580,206.585 337.800 C 206.636 338.020,206.706 338.425,206.739 338.700 C 206.773 338.975,207.070 339.200,207.400 339.200 C 207.916 339.200,208.291 341.512,208.060 343.262 C 208.041 343.406,208.324 343.766,208.690 344.062 C 209.258 344.522,209.304 344.514,209.013 344.000 C 208.809 343.642,208.819 343.535,209.036 343.733 C 209.457 344.119,209.483 344.254,209.550 346.400 C 209.585 347.533,209.775 348.000,210.200 348.000 C 210.722 348.000,211.030 349.032,210.836 350.134 C 210.804 350.318,211.142 350.564,211.589 350.681 C 212.225 350.848,212.400 351.223,212.400 352.420 C 212.400 353.595,212.584 354.005,213.200 354.200 C 213.715 354.363,214.000 354.805,214.000 355.440 C 214.000 355.982,214.270 356.529,214.600 356.655 C 214.930 356.782,215.200 357.315,215.200 357.839 C 215.200 358.364,215.560 359.018,216.000 359.293 C 216.440 359.568,216.800 360.109,216.800 360.496 C 216.800 360.933,217.103 361.200,217.600 361.200 C 218.248 361.200,218.400 361.467,218.400 362.600 C 218.400 363.578,218.581 364.000,219.000 364.000 C 219.330 364.000,219.600 364.287,219.600 364.637 C 219.600 364.988,219.960 365.369,220.400 365.484 C 221.093 365.665,221.235 365.939,221.192 367.008 C 221.175 367.422,222.208 368.311,222.500 368.134 C 222.665 368.035,222.800 368.225,222.800 368.558 C 222.800 368.891,223.250 369.614,223.800 370.164 C 224.350 370.714,224.800 371.063,224.800 370.940 C 224.800 370.559,227.095 373.149,227.352 373.819 C 227.485 374.167,227.776 374.339,227.997 374.202 C 228.219 374.065,228.400 374.323,228.400 374.776 C 228.400 375.333,228.659 375.600,229.200 375.600 C 229.916 375.600,230.187 376.016,230.047 376.900 C 230.021 377.065,230.135 377.179,230.300 377.153 C 231.118 377.023,231.600 377.257,231.600 377.782 C 231.600 378.130,232.162 378.469,233.000 378.626 C 233.802 378.777,234.400 379.126,234.400 379.445 C 234.400 379.813,234.872 380.000,235.800 380.000 C 236.933 380.000,237.200 380.152,237.200 380.800 C 237.200 381.317,237.467 381.600,237.953 381.600 C 238.394 381.600,238.803 381.967,238.937 382.483 C 239.064 382.968,239.297 383.236,239.454 383.079 C 239.612 382.921,240.114 383.139,240.570 383.561 C 241.027 383.984,241.850 384.395,242.400 384.474 C 242.950 384.554,243.355 384.840,243.300 385.109 C 243.245 385.379,243.335 385.613,243.500 385.630 C 243.665 385.646,244.160 385.729,244.600 385.814 C 245.040 385.900,245.800 386.032,246.290 386.108 C 246.779 386.184,247.319 386.400,247.490 386.587 C 247.660 386.775,247.530 386.783,247.200 386.605 C 246.747 386.362,246.708 386.401,247.041 386.762 C 247.426 387.181,248.631 387.480,250.300 387.572 C 250.575 387.588,250.755 387.825,250.700 388.100 C 250.632 388.438,251.282 388.639,252.700 388.721 C 254.409 388.819,254.800 388.976,254.800 389.560 C 254.800 390.177,255.206 390.291,257.673 390.363 C 259.800 390.425,260.670 390.616,261.024 391.101 C 261.418 391.640,262.232 391.746,265.651 391.703 C 270.187 391.645,271.231 391.803,271.092 392.524 C 270.936 393.330,289.792 393.351,290.597 392.546 C 291.133 392.009,297.349 391.445,301.709 391.537 C 302.098 391.545,302.324 391.401,302.211 391.218 C 301.898 390.711,303.047 390.400,305.233 390.400 C 306.933 390.400,307.200 390.292,307.200 389.600 C 307.200 388.872,307.467 388.800,310.171 388.800 C 312.209 388.800,313.322 388.621,313.712 388.230 C 314.183 387.759,316.141 387.443,319.900 387.228 C 320.175 387.213,320.355 386.975,320.300 386.700 C 320.239 386.396,320.741 386.149,321.585 386.068 C 322.381 385.993,323.198 385.610,323.507 385.168 C 323.886 384.628,324.521 384.400,325.651 384.400 C 326.545 384.400,327.523 384.134,327.857 383.800 C 328.192 383.466,329.169 383.200,330.066 383.200 C 331.324 383.200,331.719 383.030,331.878 382.422 C 332.025 381.863,332.493 381.609,333.541 381.522 C 334.644 381.430,334.986 381.229,334.944 380.700 C 334.900 380.146,335.207 380.000,336.417 380.000 C 338.037 380.000,340.754 378.569,340.783 377.700 C 340.793 377.411,341.323 377.200,342.037 377.200 C 342.938 377.200,343.332 376.983,343.484 376.400 C 343.600 375.957,344.030 375.600,344.447 375.600 C 344.861 375.600,345.200 375.353,345.200 375.052 C 345.200 374.698,345.847 374.431,347.027 374.298 C 348.172 374.169,349.149 373.776,349.643 373.246 C 350.076 372.781,350.615 372.400,350.839 372.400 C 351.064 372.400,351.135 372.219,350.998 371.997 C 350.751 371.597,351.367 371.222,352.557 371.047 C 352.898 370.997,353.317 370.802,353.488 370.614 C 353.660 370.426,353.530 370.426,353.200 370.615 C 352.870 370.804,353.139 370.383,353.799 369.679 C 354.458 368.976,355.330 368.400,355.736 368.400 C 356.142 368.400,356.569 368.040,356.684 367.600 C 356.799 367.160,357.148 366.800,357.459 366.800 C 357.770 366.800,358.129 366.530,358.255 366.200 C 358.382 365.870,358.724 365.600,359.016 365.600 C 359.307 365.600,359.660 365.240,359.800 364.800 C 359.940 364.360,360.312 364.000,360.627 364.000 C 360.942 364.000,361.200 363.730,361.200 363.400 C 361.200 363.070,361.380 362.778,361.600 362.750 C 361.820 362.723,362.180 362.655,362.400 362.600 C 362.620 362.545,363.070 362.478,363.400 362.450 C 363.730 362.423,364.000 362.130,364.000 361.800 C 364.000 361.259,364.475 361.022,365.300 361.153 C 365.465 361.179,365.600 360.840,365.600 360.400 C 365.600 359.867,365.867 359.600,366.400 359.600 C 367.080 359.600,367.200 359.333,367.200 357.824 C 367.200 356.847,367.389 355.931,367.619 355.788 C 367.877 355.629,367.899 355.350,367.675 355.064 C 367.474 354.809,367.192 354.105,367.048 353.500 C 366.903 352.895,366.539 352.400,366.239 352.400 C 365.939 352.400,365.594 352.022,365.474 351.560 C 365.353 351.098,365.079 350.827,364.866 350.959 C 364.653 351.091,364.290 350.659,364.060 350.000 C 363.830 349.340,363.532 348.800,363.397 348.800 C 363.263 348.800,363.282 349.025,363.441 349.300 C 363.608 349.590,363.576 349.660,363.364 349.467 C 363.005 349.138,362.949 348.958,362.850 347.827 C 362.822 347.512,362.440 347.140,362.000 347.000 C 361.560 346.860,361.200 346.419,361.200 346.020 C 361.200 345.618,360.824 345.195,360.360 345.074 C 359.863 344.944,359.634 344.668,359.800 344.400 C 359.966 344.132,359.737 343.856,359.240 343.726 C 358.504 343.534,358.195 342.898,358.353 341.900 C 358.379 341.735,358.209 341.600,357.976 341.600 C 357.743 341.600,357.683 341.389,357.842 341.132 C 358.036 340.817,357.913 340.748,357.466 340.919 C 356.953 341.116,356.800 340.943,356.800 340.164 C 356.800 339.549,356.633 339.256,356.373 339.417 C 356.138 339.562,355.847 339.303,355.726 338.840 C 355.601 338.362,355.182 338.000,354.753 338.000 C 354.216 338.000,354.000 337.713,354.000 337.000 C 354.000 336.450,353.809 336.000,353.576 336.000 C 353.343 336.000,353.264 335.820,353.400 335.600 C 353.536 335.380,353.367 335.200,353.024 335.200 C 352.453 335.200,352.215 334.720,352.363 333.870 C 352.394 333.689,352.236 333.654,352.012 333.793 C 351.787 333.932,351.394 333.585,351.137 333.023 C 350.881 332.460,350.430 332.000,350.136 332.000 C 349.841 332.000,349.600 331.640,349.600 331.200 C 349.600 330.667,349.333 330.400,348.800 330.400 C 348.152 330.400,348.000 330.133,348.000 329.000 C 348.000 328.230,347.829 327.600,347.621 327.600 C 347.070 327.600,345.200 325.788,345.200 325.254 C 345.200 325.004,344.840 324.800,344.400 324.800 C 343.867 324.800,343.600 324.533,343.600 324.000 C 343.600 323.556,343.333 323.200,343.000 323.200 C 342.670 323.200,342.400 322.905,342.400 322.544 C 342.400 322.183,342.085 321.630,341.700 321.314 C 341.315 320.999,341.253 320.872,341.562 321.032 C 341.931 321.224,342.026 321.165,341.838 320.862 C 341.681 320.608,341.126 320.400,340.603 320.400 C 340.005 320.400,339.560 320.104,339.400 319.600 C 339.258 319.153,338.795 318.800,338.349 318.800 C 337.911 318.800,337.656 318.633,337.782 318.429 C 338.565 317.162,329.549 316.918,328.280 318.171 C 328.016 318.432,327.485 318.764,327.100 318.910 C 326.715 319.056,326.400 319.451,326.400 319.787 C 326.400 320.124,326.059 320.400,325.643 320.400 C 325.226 320.400,324.792 320.644,324.677 320.943 C 324.563 321.242,323.913 321.597,323.234 321.733 C 322.503 321.879,322.000 322.228,322.000 322.590 C 322.000 323.109,321.045 323.415,319.924 323.255 C 319.773 323.234,319.536 323.573,319.397 324.008 C 319.259 324.444,318.798 324.800,318.373 324.800 C 317.948 324.800,317.600 325.070,317.600 325.400 C 317.600 325.730,317.240 326.023,316.800 326.050 C 315.224 326.148,313.600 326.746,313.600 327.227 C 313.600 327.432,312.953 327.600,312.163 327.600 C 311.062 327.600,310.676 327.787,310.516 328.400 C 310.350 329.036,309.968 329.201,308.653 329.205 C 306.645 329.212,305.141 329.580,305.401 330.002 C 305.807 330.658,296.022 330.479,295.361 329.818 C 294.990 329.447,294.036 329.200,292.971 329.200 C 291.733 329.200,290.959 328.959,290.400 328.400 C 289.960 327.960,289.229 327.600,288.776 327.600 C 288.323 327.600,288.052 327.440,288.173 327.244 C 288.294 327.048,287.939 326.590,287.384 326.226 C 286.829 325.862,286.481 325.393,286.611 325.182 C 286.741 324.972,286.392 324.800,285.836 324.800 C 285.102 324.800,284.888 324.636,285.055 324.200 C 285.201 323.820,285.050 323.600,284.643 323.600 C 284.274 323.600,284.000 323.270,284.000 322.827 C 284.000 322.402,283.640 321.940,283.200 321.800 C 282.760 321.660,282.400 321.288,282.400 320.973 C 282.400 320.658,282.130 320.400,281.800 320.400 C 281.470 320.400,281.179 320.175,281.154 319.900 C 281.128 319.625,281.066 319.220,281.015 319.000 C 280.964 318.780,280.894 318.375,280.861 318.100 C 280.827 317.825,280.530 317.600,280.200 317.600 C 279.806 317.600,279.600 317.206,279.600 316.454 C 279.600 315.824,279.240 314.850,278.800 314.291 C 278.139 313.450,278.000 312.668,278.000 309.781 C 278.000 307.195,277.849 306.173,277.418 305.844 C 277.019 305.540,276.769 304.280,276.622 301.836 C 276.483 299.516,276.203 298.045,275.819 297.621 C 275.355 297.109,275.219 295.579,275.180 290.450 C 275.135 284.602,275.051 283.851,274.365 283.165 C 273.679 282.479,273.600 281.774,273.600 276.331 C 273.600 271.627,273.471 270.121,273.027 269.630 C 272.597 269.155,272.412 267.403,272.286 262.599 C 272.108 255.814,272.035 255.206,271.297 254.317 C 270.988 253.944,270.813 251.563,270.780 247.275 C 270.736 241.450,270.656 240.744,269.988 240.277 C 269.322 239.810,269.233 239.042,269.123 232.778 C 269.029 227.460,268.881 225.824,268.500 225.900 C 268.076 225.985,267.626 215.693,267.973 213.840 C 268.010 213.642,267.911 213.192,267.754 212.840 C 267.597 212.488,267.445 212.020,267.416 211.800 C 267.387 211.580,267.147 211.445,266.882 211.500 C 266.485 211.582,266.033 199.818,266.359 197.881 C 266.388 197.706,266.095 197.616,265.706 197.681 C 265.057 197.790,264.990 197.223,264.879 190.600 C 264.792 185.369,264.610 183.172,264.214 182.567 C 263.824 181.971,263.630 179.821,263.534 175.034 C 263.419 169.275,263.304 168.264,262.716 167.835 C 262.124 167.403,262.026 166.470,261.980 160.883 C 261.932 154.908,261.872 154.413,261.164 154.189 C 260.502 153.979,260.400 153.548,260.400 150.973 L 260.400 148.000 261.700 147.959 C 262.415 147.936,263.810 147.916,264.800 147.913 C 265.790 147.910,266.870 147.673,267.200 147.386 C 267.612 147.028,269.741 146.798,274.000 146.653 C 277.410 146.537,280.412 146.432,280.671 146.421 C 280.931 146.409,281.403 146.139,281.722 145.821 C 282.170 145.372,283.685 145.227,288.450 145.176 C 293.427 145.122,294.737 144.988,295.319 144.475 C 296.257 143.649,296.331 143.641,303.703 143.583 C 307.170 143.556,309.916 143.387,309.805 143.209 C 309.695 143.030,309.883 142.777,310.223 142.646 C 310.643 142.485,310.746 142.568,310.544 142.905 C 310.314 143.287,310.378 143.294,310.823 142.937 C 311.310 142.546,314.560 142.309,324.077 141.971 C 324.496 141.956,324.671 141.728,324.534 141.373 C 324.350 140.894,325.166 140.800,329.535 140.800 C 334.145 140.800,334.816 140.714,335.277 140.065 C 335.565 139.660,336.287 139.209,336.881 139.062 L 337.962 138.794 337.944 132.598 C 337.934 129.190,337.760 126.299,337.557 126.173 C 337.353 126.048,337.308 125.749,337.455 125.511 C 337.606 125.267,337.539 125.190,337.304 125.336 C 336.576 125.786,336.429 124.587,336.380 117.804 C 336.351 113.818,336.178 111.200,335.942 111.200 C 335.728 111.200,335.655 111.035,335.779 110.834 C 335.903 110.633,335.838 110.408,335.634 110.334 C 335.430 110.260,335.156 107.500,335.025 104.200 C 334.753 97.307,334.675 96.530,334.211 96.108 C 334.024 95.939,333.994 96.013,334.142 96.272 C 334.291 96.532,334.252 96.844,334.056 96.966 C 333.857 97.089,333.668 95.409,333.629 93.174 C 333.553 88.756,333.421 88.140,332.327 87.076 C 331.917 86.678,331.676 86.201,331.791 86.015 C 332.137 85.455,327.584 85.152,324.600 85.537 C 323.060 85.736,321.654 85.814,321.475 85.710 C 321.296 85.607,320.846 85.793,320.475 86.124 C 319.948 86.594,318.373 86.759,313.312 86.871 C 307.774 86.994,306.748 87.116,306.312 87.697 C 305.869 88.286,304.932 88.384,299.400 88.420 C 294.814 88.449,292.765 88.611,292.171 88.993 C 291.644 89.332,289.828 89.556,287.171 89.609 C 281.499 89.724,279.146 89.989,279.448 90.477 C 279.597 90.718,279.367 90.704,278.876 90.441 C 278.243 90.102,277.922 90.135,277.475 90.583 C 277.022 91.035,275.496 91.179,270.570 91.233 C 265.237 91.291,264.148 91.406,263.623 91.970 C 263.280 92.337,263.157 92.404,263.349 92.119 C 263.569 91.792,263.527 91.600,263.236 91.600 C 262.983 91.600,262.671 91.870,262.545 92.200 C 262.241 92.990,255.923 93.071,255.277 92.293 C 255.046 92.014,254.814 89.719,254.762 87.193 C 254.681 83.261,254.562 82.525,253.934 82.077 C 253.270 81.605,253.200 80.890,253.200 74.606 C 253.200 69.143,253.079 67.536,252.633 67.090 C 252.214 66.671,252.011 64.919,251.854 60.362 C 251.737 56.973,251.632 53.988,251.621 53.729 C 251.609 53.469,251.337 52.994,251.015 52.672 C 250.554 52.211,250.419 50.719,250.380 45.659 C 250.334 39.703,250.275 39.214,249.565 38.989 C 248.893 38.776,248.284 26.015,248.900 25.042 C 248.955 24.955,248.701 24.550,248.334 24.142 C 247.795 23.541,247.627 22.186,247.446 17.000 C 247.179 9.335,247.202 9.514,246.533 9.770 C 246.112 9.932,246.000 9.179,246.000 6.187 C 246.000 2.860,245.915 2.396,245.300 2.365 C 241.729 2.187,234.853 2.080,234.733 2.200 " stroke="none" fill="#1c147b" fill-rule="evenodd"></path><path id="path2" d="M238.900 2.276 C 239.285 2.376,239.915 2.376,240.300 2.276 C 240.685 2.175,240.370 2.093,239.600 2.093 C 238.830 2.093,238.515 2.175,238.900 2.276 M190.493 26.000 C 190.493 26.770,190.575 27.085,190.676 26.700 C 190.776 26.315,190.776 25.685,190.676 25.300 C 190.575 24.915,190.493 25.230,190.493 26.000 M185.701 89.000 C 185.705 89.880,185.787 90.193,185.883 89.695 C 185.979 89.198,185.975 88.478,185.875 88.095 C 185.775 87.713,185.696 88.120,185.701 89.000 M101.505 159.883 C 102.002 159.979,102.722 159.975,103.105 159.875 C 103.487 159.775,103.080 159.696,102.200 159.701 C 101.320 159.705,101.007 159.787,101.505 159.883 M91.829 176.629 C 90.964 177.493,91.041 177.706,92.000 177.107 C 92.440 176.832,92.800 176.471,92.800 176.304 C 92.800 175.843,92.521 175.936,91.829 176.629 M264.860 197.180 C 264.948 197.444,265.150 197.647,265.310 197.630 C 265.788 197.581,265.696 197.032,265.180 196.860 C 264.916 196.772,264.772 196.916,264.860 197.180 M176.025 209.400 C 176.025 209.840,176.290 210.549,176.613 210.976 C 177.192 211.743,177.200 211.742,177.200 210.953 C 177.200 210.513,176.936 209.804,176.613 209.376 C 176.033 208.610,176.025 208.611,176.025 209.400 M123.293 258.800 C 123.293 259.570,123.375 259.885,123.476 259.500 C 123.576 259.115,123.576 258.485,123.476 258.100 C 123.375 257.715,123.293 258.030,123.293 258.800 M62.959 262.322 C 62.730 262.475,62.411 262.960,62.250 263.400 C 61.980 264.144,62.022 264.137,62.857 263.311 C 63.730 262.448,63.801 261.761,62.959 262.322 M123.342 276.600 C 123.341 278.580,123.408 279.440,123.492 278.512 C 123.576 277.584,123.577 275.964,123.495 274.912 C 123.412 273.860,123.343 274.620,123.342 276.600 M180.134 290.400 C 180.134 292.050,180.205 292.725,180.291 291.900 C 180.378 291.075,180.378 289.725,180.291 288.900 C 180.205 288.075,180.134 288.750,180.134 290.400 M123.293 294.400 C 123.293 295.170,123.375 295.485,123.476 295.100 C 123.576 294.715,123.576 294.085,123.476 293.700 C 123.375 293.315,123.293 293.630,123.293 294.400 M202.109 304.000 C 202.109 304.990,202.187 305.395,202.282 304.900 C 202.378 304.405,202.378 303.595,202.282 303.100 C 202.187 302.605,202.109 303.010,202.109 304.000 M180.688 310.533 C 180.242 311.666,180.315 312.245,180.838 311.722 C 181.078 311.482,181.208 310.951,181.126 310.542 C 180.982 309.826,180.966 309.826,180.688 310.533 M182.901 347.400 C 182.905 348.280,182.987 348.593,183.083 348.095 C 183.179 347.598,183.175 346.878,183.075 346.495 C 182.975 346.113,182.896 346.520,182.901 347.400 M24.382 374.034 C 23.747 375.221,24.069 375.297,24.919 374.161 C 25.314 373.632,25.455 373.200,25.233 373.200 C 25.010 373.200,24.627 373.575,24.382 374.034 M184.493 382.400 C 184.493 383.170,184.575 383.485,184.676 383.100 C 184.776 382.715,184.776 382.085,184.676 381.700 C 184.575 381.315,184.493 381.630,184.493 382.400 M267.300 391.887 C 267.905 391.978,268.895 391.978,269.500 391.887 C 270.105 391.795,269.610 391.720,268.400 391.720 C 267.190 391.720,266.695 391.795,267.300 391.887 M81.372 404.187 C 81.016 404.730,80.787 405.343,80.862 405.549 C 80.938 405.755,81.311 405.310,81.692 404.562 C 82.497 402.976,82.309 402.757,81.372 404.187 M184.898 407.025 C 184.836 407.899,184.952 408.353,185.198 408.201 C 185.661 407.915,185.751 405.600,185.300 405.601 C 185.135 405.601,184.954 406.242,184.898 407.025 M123.293 411.200 C 123.293 411.970,123.375 412.285,123.476 411.900 C 123.576 411.515,123.576 410.885,123.476 410.500 C 123.375 410.115,123.293 410.430,123.293 411.200 M123.738 423.417 C 123.378 424.355,123.767 424.466,124.319 423.582 C 124.628 423.087,124.654 422.800,124.391 422.800 C 124.162 422.800,123.868 423.078,123.738 423.417 M5.309 446.400 C 5.869 446.840,6.457 447.200,6.617 447.200 C 6.777 447.200,6.450 446.840,5.891 446.400 C 5.331 445.960,4.743 445.600,4.583 445.600 C 4.423 445.600,4.750 445.960,5.309 446.400 M36.000 450.386 C 36.000 450.598,36.405 450.984,36.900 451.244 C 37.795 451.714,37.796 451.712,37.038 450.858 C 36.191 449.905,36.000 449.818,36.000 450.386 M186.000 451.400 C 186.000 451.730,186.292 452.000,186.649 452.000 C 187.180 452.000,187.208 451.891,186.800 451.400 C 186.526 451.070,186.234 450.800,186.151 450.800 C 186.068 450.800,186.000 451.070,186.000 451.400 M129.600 463.586 C 129.600 463.798,130.005 464.184,130.500 464.444 C 131.395 464.914,131.396 464.912,130.638 464.058 C 129.791 463.105,129.600 463.018,129.600 463.586 M160.800 467.951 C 160.800 468.472,161.979 469.355,162.276 469.057 C 162.418 468.916,162.323 468.800,162.067 468.800 C 161.810 468.800,161.600 468.530,161.600 468.200 C 161.600 467.870,161.420 467.600,161.200 467.600 C 160.980 467.600,160.800 467.758,160.800 467.951 M176.305 470.683 C 176.802 470.779,177.522 470.775,177.905 470.675 C 178.287 470.575,177.880 470.496,177.000 470.501 C 176.120 470.505,175.807 470.587,176.305 470.683 " stroke="none" fill="#8844d8" fill-rule="evenodd"></path><path id="path3" d="M238.900 2.276 C 239.285 2.376,239.915 2.376,240.300 2.276 C 240.685 2.175,240.370 2.093,239.600 2.093 C 238.830 2.093,238.515 2.175,238.900 2.276 M190.493 26.000 C 190.493 26.770,190.575 27.085,190.676 26.700 C 190.776 26.315,190.776 25.685,190.676 25.300 C 190.575 24.915,190.493 25.230,190.493 26.000 M185.701 89.000 C 185.705 89.880,185.787 90.193,185.883 89.695 C 185.979 89.198,185.975 88.478,185.875 88.095 C 185.775 87.713,185.696 88.120,185.701 89.000 M101.505 159.883 C 102.002 159.979,102.722 159.975,103.105 159.875 C 103.487 159.775,103.080 159.696,102.200 159.701 C 101.320 159.705,101.007 159.787,101.505 159.883 M91.829 176.629 C 90.964 177.493,91.041 177.706,92.000 177.107 C 92.440 176.832,92.800 176.471,92.800 176.304 C 92.800 175.843,92.521 175.936,91.829 176.629 M264.860 197.180 C 264.948 197.444,265.150 197.647,265.310 197.630 C 265.788 197.581,265.696 197.032,265.180 196.860 C 264.916 196.772,264.772 196.916,264.860 197.180 M176.025 209.400 C 176.025 209.840,176.290 210.549,176.613 210.976 C 177.192 211.743,177.200 211.742,177.200 210.953 C 177.200 210.513,176.936 209.804,176.613 209.376 C 176.033 208.610,176.025 208.611,176.025 209.400 M123.293 258.800 C 123.293 259.570,123.375 259.885,123.476 259.500 C 123.576 259.115,123.576 258.485,123.476 258.100 C 123.375 257.715,123.293 258.030,123.293 258.800 M62.959 262.322 C 62.730 262.475,62.411 262.960,62.250 263.400 C 61.980 264.144,62.022 264.137,62.857 263.311 C 63.730 262.448,63.801 261.761,62.959 262.322 M123.342 276.600 C 123.341 278.580,123.408 279.440,123.492 278.512 C 123.576 277.584,123.577 275.964,123.495 274.912 C 123.412 273.860,123.343 274.620,123.342 276.600 M180.134 290.400 C 180.134 292.050,180.205 292.725,180.291 291.900 C 180.378 291.075,180.378 289.725,180.291 288.900 C 180.205 288.075,180.134 288.750,180.134 290.400 M123.293 294.400 C 123.293 295.170,123.375 295.485,123.476 295.100 C 123.576 294.715,123.576 294.085,123.476 293.700 C 123.375 293.315,123.293 293.630,123.293 294.400 M202.109 304.000 C 202.109 304.990,202.187 305.395,202.282 304.900 C 202.378 304.405,202.378 303.595,202.282 303.100 C 202.187 302.605,202.109 303.010,202.109 304.000 M180.688 310.533 C 180.242 311.666,180.315 312.245,180.838 311.722 C 181.078 311.482,181.208 310.951,181.126 310.542 C 180.982 309.826,180.966 309.826,180.688 310.533 M182.901 347.400 C 182.905 348.280,182.987 348.593,183.083 348.095 C 183.179 347.598,183.175 346.878,183.075 346.495 C 182.975 346.113,182.896 346.520,182.901 347.400 M24.382 374.034 C 23.747 375.221,24.069 375.297,24.919 374.161 C 25.314 373.632,25.455 373.200,25.233 373.200 C 25.010 373.200,24.627 373.575,24.382 374.034 M184.493 382.400 C 184.493 383.170,184.575 383.485,184.676 383.100 C 184.776 382.715,184.776 382.085,184.676 381.700 C 184.575 381.315,184.493 381.630,184.493 382.400 M267.300 391.887 C 267.905 391.978,268.895 391.978,269.500 391.887 C 270.105 391.795,269.610 391.720,268.400 391.720 C 267.190 391.720,266.695 391.795,267.300 391.887 M81.372 404.187 C 81.016 404.730,80.787 405.343,80.862 405.549 C 80.938 405.755,81.311 405.310,81.692 404.562 C 82.497 402.976,82.309 402.757,81.372 404.187 M184.898 407.025 C 184.836 407.899,184.952 408.353,185.198 408.201 C 185.661 407.915,185.751 405.600,185.300 405.601 C 185.135 405.601,184.954 406.242,184.898 407.025 M123.293 411.200 C 123.293 411.970,123.375 412.285,123.476 411.900 C 123.576 411.515,123.576 410.885,123.476 410.500 C 123.375 410.115,123.293 410.430,123.293 411.200 M123.738 423.417 C 123.378 424.355,123.767 424.466,124.319 423.582 C 124.628 423.087,124.654 422.800,124.391 422.800 C 124.162 422.800,123.868 423.078,123.738 423.417 M5.309 446.400 C 5.869 446.840,6.457 447.200,6.617 447.200 C 6.777 447.200,6.450 446.840,5.891 446.400 C 5.331 445.960,4.743 445.600,4.583 445.600 C 4.423 445.600,4.750 445.960,5.309 446.400 M36.000 450.386 C 36.000 450.598,36.405 450.984,36.900 451.244 C 37.795 451.714,37.796 451.712,37.038 450.858 C 36.191 449.905,36.000 449.818,36.000 450.386 M186.000 451.400 C 186.000 451.730,186.292 452.000,186.649 452.000 C 187.180 452.000,187.208 451.891,186.800 451.400 C 186.526 451.070,186.234 450.800,186.151 450.800 C 186.068 450.800,186.000 451.070,186.000 451.400 M129.600 463.586 C 129.600 463.798,130.005 464.184,130.500 464.444 C 131.395 464.914,131.396 464.912,130.638 464.058 C 129.791 463.105,129.600 463.018,129.600 463.586 M160.800 467.951 C 160.800 468.472,161.979 469.355,162.276 469.057 C 162.418 468.916,162.323 468.800,162.067 468.800 C 161.810 468.800,161.600 468.530,161.600 468.200 C 161.600 467.870,161.420 467.600,161.200 467.600 C 160.980 467.600,160.800 467.758,160.800 467.951 M176.305 470.683 C 176.802 470.779,177.522 470.775,177.905 470.675 C 178.287 470.575,177.880 470.496,177.000 470.501 C 176.120 470.505,175.807 470.587,176.305 470.683 " stroke="none" fill="#8844d8" fill-rule="evenodd"></path><path id="path4" d="M238.900 2.276 C 239.285 2.376,239.915 2.376,240.300 2.276 C 240.685 2.175,240.370 2.093,239.600 2.093 C 238.830 2.093,238.515 2.175,238.900 2.276 M190.493 26.000 C 190.493 26.770,190.575 27.085,190.676 26.700 C 190.776 26.315,190.776 25.685,190.676 25.300 C 190.575 24.915,190.493 25.230,190.493 26.000 M185.701 89.000 C 185.705 89.880,185.787 90.193,185.883 89.695 C 185.979 89.198,185.975 88.478,185.875 88.095 C 185.775 87.713,185.696 88.120,185.701 89.000 M101.505 159.883 C 102.002 159.979,102.722 159.975,103.105 159.875 C 103.487 159.775,103.080 159.696,102.200 159.701 C 101.320 159.705,101.007 159.787,101.505 159.883 M91.829 176.629 C 90.964 177.493,91.041 177.706,92.000 177.107 C 92.440 176.832,92.800 176.471,92.800 176.304 C 92.800 175.843,92.521 175.936,91.829 176.629 M264.860 197.180 C 264.948 197.444,265.150 197.647,265.310 197.630 C 265.788 197.581,265.696 197.032,265.180 196.860 C 264.916 196.772,264.772 196.916,264.860 197.180 M176.025 209.400 C 176.025 209.840,176.290 210.549,176.613 210.976 C 177.192 211.743,177.200 211.742,177.200 210.953 C 177.200 210.513,176.936 209.804,176.613 209.376 C 176.033 208.610,176.025 208.611,176.025 209.400 M123.293 258.800 C 123.293 259.570,123.375 259.885,123.476 259.500 C 123.576 259.115,123.576 258.485,123.476 258.100 C 123.375 257.715,123.293 258.030,123.293 258.800 M62.959 262.322 C 62.730 262.475,62.411 262.960,62.250 263.400 C 61.980 264.144,62.022 264.137,62.857 263.311 C 63.730 262.448,63.801 261.761,62.959 262.322 M123.342 276.600 C 123.341 278.580,123.408 279.440,123.492 278.512 C 123.576 277.584,123.577 275.964,123.495 274.912 C 123.412 273.860,123.343 274.620,123.342 276.600 M180.134 290.400 C 180.134 292.050,180.205 292.725,180.291 291.900 C 180.378 291.075,180.378 289.725,180.291 288.900 C 180.205 288.075,180.134 288.750,180.134 290.400 M123.293 294.400 C 123.293 295.170,123.375 295.485,123.476 295.100 C 123.576 294.715,123.576 294.085,123.476 293.700 C 123.375 293.315,123.293 293.630,123.293 294.400 M202.109 304.000 C 202.109 304.990,202.187 305.395,202.282 304.900 C 202.378 304.405,202.378 303.595,202.282 303.100 C 202.187 302.605,202.109 303.010,202.109 304.000 M180.688 310.533 C 180.242 311.666,180.315 312.245,180.838 311.722 C 181.078 311.482,181.208 310.951,181.126 310.542 C 180.982 309.826,180.966 309.826,180.688 310.533 M182.901 347.400 C 182.905 348.280,182.987 348.593,183.083 348.095 C 183.179 347.598,183.175 346.878,183.075 346.495 C 182.975 346.113,182.896 346.520,182.901 347.400 M24.382 374.034 C 23.747 375.221,24.069 375.297,24.919 374.161 C 25.314 373.632,25.455 373.200,25.233 373.200 C 25.010 373.200,24.627 373.575,24.382 374.034 M184.493 382.400 C 184.493 383.170,184.575 383.485,184.676 383.100 C 184.776 382.715,184.776 382.085,184.676 381.700 C 184.575 381.315,184.493 381.630,184.493 382.400 M267.300 391.887 C 267.905 391.978,268.895 391.978,269.500 391.887 C 270.105 391.795,269.610 391.720,268.400 391.720 C 267.190 391.720,266.695 391.795,267.300 391.887 M81.372 404.187 C 81.016 404.730,80.787 405.343,80.862 405.549 C 80.938 405.755,81.311 405.310,81.692 404.562 C 82.497 402.976,82.309 402.757,81.372 404.187 M184.898 407.025 C 184.836 407.899,184.952 408.353,185.198 408.201 C 185.661 407.915,185.751 405.600,185.300 405.601 C 185.135 405.601,184.954 406.242,184.898 407.025 M123.293 411.200 C 123.293 411.970,123.375 412.285,123.476 411.900 C 123.576 411.515,123.576 410.885,123.476 410.500 C 123.375 410.115,123.293 410.430,123.293 411.200 M123.738 423.417 C 123.378 424.355,123.767 424.466,124.319 423.582 C 124.628 423.087,124.654 422.800,124.391 422.800 C 124.162 422.800,123.868 423.078,123.738 423.417 M5.309 446.400 C 5.869 446.840,6.457 447.200,6.617 447.200 C 6.777 447.200,6.450 446.840,5.891 446.400 C 5.331 445.960,4.743 445.600,4.583 445.600 C 4.423 445.600,4.750 445.960,5.309 446.400 M36.000 450.386 C 36.000 450.598,36.405 450.984,36.900 451.244 C 37.795 451.714,37.796 451.712,37.038 450.858 C 36.191 449.905,36.000 449.818,36.000 450.386 M186.000 451.400 C 186.000 451.730,186.292 452.000,186.649 452.000 C 187.180 452.000,187.208 451.891,186.800 451.400 C 186.526 451.070,186.234 450.800,186.151 450.800 C 186.068 450.800,186.000 451.070,186.000 451.400 M129.600 463.586 C 129.600 463.798,130.005 464.184,130.500 464.444 C 131.395 464.914,131.396 464.912,130.638 464.058 C 129.791 463.105,129.600 463.018,129.600 463.586 M160.800 467.951 C 160.800 468.472,161.979 469.355,162.276 469.057 C 162.418 468.916,162.323 468.800,162.067 468.800 C 161.810 468.800,161.600 468.530,161.600 468.200 C 161.600 467.870,161.420 467.600,161.200 467.600 C 160.980 467.600,160.800 467.758,160.800 467.951 M176.305 470.683 C 176.802 470.779,177.522 470.775,177.905 470.675 C 178.287 470.575,177.880 470.496,177.000 470.501 C 176.120 470.505,175.807 470.587,176.305 470.683 " stroke="none" fill="#8844d8" fill-rule="evenodd"></path></g></svg>