<svg id="svg" version="1.1" xmlns="http://www.w3.org/2000/svg" xmlns:xlink="http://www.w3.org/1999/xlink" width="400" height="472.99270072992704" viewBox="0, 0, 400,472.99270072992704"><g id="svgg"><path id="path0" d="M107.232 160.324 C 107.214 160.612,107.022 160.737,106.805 160.603 C 106.582 160.465,106.509 160.617,106.637 160.952 C 106.910 161.664,108.267 161.652,108.267 160.937 C 108.267 160.661,108.132 160.518,107.967 160.620 C 107.803 160.722,107.577 160.579,107.466 160.302 C 107.309 159.913,107.256 159.918,107.232 160.324 M114.645 161.673 C 114.761 161.860,115.043 161.897,115.272 161.755 C 115.502 161.614,115.847 161.746,116.039 162.049 C 116.291 162.448,116.389 162.462,116.394 162.100 C 116.397 161.825,116.591 161.600,116.824 161.600 C 117.057 161.600,117.119 161.808,116.962 162.062 C 116.779 162.357,116.853 162.415,117.165 162.222 C 117.433 162.056,117.536 161.803,117.394 161.660 C 117.003 161.268,114.403 161.281,114.645 161.673 M126.199 163.201 C 126.063 163.422,126.229 163.487,126.584 163.351 C 126.988 163.196,127.160 163.303,127.070 163.655 C 126.994 163.955,127.003 164.075,127.091 163.922 C 127.180 163.770,127.492 163.737,127.785 163.850 C 128.079 163.962,128.438 163.862,128.583 163.627 C 128.728 163.392,128.702 163.187,128.524 163.170 C 128.346 163.154,127.804 163.066,127.320 162.976 C 126.836 162.885,126.332 162.987,126.199 163.201 M132.833 164.143 C 132.925 164.221,133.630 164.401,134.400 164.542 C 135.385 164.723,135.622 164.682,135.200 164.406 C 134.658 164.050,132.437 163.803,132.833 164.143 M138.263 165.269 C 139.005 166.089,139.337 166.023,138.992 165.124 C 138.868 164.799,138.503 164.533,138.181 164.533 C 137.698 164.533,137.712 164.661,138.263 165.269 M90.846 180.924 C 90.817 181.380,90.615 181.543,90.300 181.365 C 89.903 181.141,89.902 181.192,90.293 181.615 C 90.907 182.276,91.334 181.906,91.082 180.931 C 90.902 180.234,90.891 180.234,90.846 180.924 M174.600 185.020 C 174.600 185.559,174.809 186.000,175.065 186.000 C 175.595 186.000,175.538 184.978,174.976 184.416 C 174.741 184.181,174.600 184.408,174.600 185.020 M89.600 185.380 C 89.600 185.699,89.285 186.144,88.900 186.368 C 88.512 186.594,88.423 186.781,88.700 186.788 C 88.975 186.795,89.325 186.805,89.478 186.810 C 89.631 186.816,89.818 186.366,89.892 185.810 C 89.966 185.255,89.931 184.800,89.814 184.800 C 89.696 184.800,89.600 185.061,89.600 185.380 M175.714 188.600 C 175.717 189.700,175.795 190.103,175.887 189.495 C 175.979 188.886,175.977 187.986,175.882 187.495 C 175.787 187.003,175.711 187.500,175.714 188.600 M174.400 194.424 C 174.400 194.946,174.570 195.142,174.863 194.961 C 175.175 194.768,175.258 194.935,175.118 195.471 C 174.987 195.973,175.108 196.267,175.446 196.267 C 175.938 196.267,175.864 194.867,175.321 193.900 C 174.981 193.294,174.400 193.624,174.400 194.424 M79.000 214.800 C 78.602 215.240,78.478 215.600,78.724 215.600 C 78.970 215.600,79.365 215.240,79.600 214.800 C 79.835 214.360,79.960 214.000,79.876 214.000 C 79.792 214.000,79.398 214.360,79.000 214.800 M176.550 220.275 C 176.697 220.537,176.498 220.936,176.108 221.163 C 175.719 221.390,175.580 221.578,175.800 221.582 C 176.801 221.597,177.412 220.851,176.838 220.317 C 176.485 219.988,176.380 219.973,176.550 220.275 M75.467 224.267 C 75.063 224.670,75.147 225.600,75.587 225.600 C 75.801 225.600,75.859 225.299,75.718 224.931 C 75.521 224.418,75.622 224.323,76.151 224.526 C 76.562 224.684,76.743 224.631,76.597 224.395 C 76.314 223.938,75.849 223.885,75.467 224.267 M71.476 236.276 C 71.353 236.475,71.398 236.874,71.576 237.162 C 71.754 237.450,72.001 237.523,72.124 237.324 C 72.247 237.125,72.202 236.726,72.024 236.438 C 71.846 236.150,71.599 236.077,71.476 236.276 M178.263 249.280 C 178.600 251.049,178.800 251.201,178.800 249.690 C 178.800 249.007,178.623 248.338,178.406 248.204 C 178.160 248.052,178.106 248.455,178.263 249.280 M67.054 249.513 C 66.943 249.692,66.996 250.070,67.171 250.353 C 67.419 250.754,67.541 250.731,67.727 250.246 C 67.979 249.590,67.398 248.957,67.054 249.513 M177.569 251.300 C 177.225 252.424,177.317 252.801,177.832 252.373 C 178.490 251.827,178.580 251.200,178.000 251.200 C 177.780 251.200,177.586 251.245,177.569 251.300 M64.400 257.713 C 64.070 257.981,63.760 258.560,63.712 259.000 C 63.663 259.440,63.723 259.575,63.845 259.300 C 63.967 259.025,64.283 258.800,64.548 258.800 C 64.812 258.800,65.029 258.440,65.029 258.000 C 65.029 257.560,65.022 257.206,65.014 257.213 C 65.006 257.220,64.730 257.445,64.400 257.713 M122.232 259.460 C 121.893 260.344,122.177 260.550,122.762 259.845 C 123.046 259.503,123.086 259.177,122.861 259.038 C 122.654 258.910,122.371 259.099,122.232 259.460 M123.600 260.200 C 123.600 260.530,123.870 260.800,124.200 260.800 C 124.530 260.800,124.800 260.530,124.800 260.200 C 124.800 259.870,124.530 259.600,124.200 259.600 C 123.870 259.600,123.600 259.870,123.600 260.200 M62.598 263.602 C 62.198 264.044,61.990 264.524,62.136 264.669 C 62.281 264.814,62.400 264.713,62.400 264.443 C 62.400 264.164,62.615 264.077,62.900 264.241 C 63.175 264.399,63.267 264.381,63.103 264.201 C 62.940 264.021,63.007 263.632,63.252 263.337 C 63.957 262.488,63.403 262.713,62.598 263.602 M121.412 265.562 C 121.269 266.014,120.961 266.342,120.729 266.292 C 120.496 266.241,120.253 266.515,120.189 266.900 C 120.124 267.285,120.254 267.600,120.478 267.600 C 120.702 267.600,120.772 267.305,120.634 266.943 C 120.432 266.417,120.493 266.379,120.943 266.752 C 121.396 267.129,121.544 267.006,121.716 266.109 C 121.973 264.771,121.776 264.416,121.412 265.562 M123.200 269.000 C 123.200 270.283,123.320 271.213,123.467 271.067 C 123.799 270.734,123.783 267.249,123.447 266.913 C 123.311 266.778,123.200 267.717,123.200 269.000 M119.600 269.200 C 120.036 269.482,120.057 269.589,119.676 269.594 C 119.388 269.597,119.276 269.799,119.426 270.043 C 119.617 270.351,119.804 270.321,120.044 269.943 C 120.567 269.118,120.470 268.799,119.700 268.806 C 119.102 268.811,119.087 268.869,119.600 269.200 M60.578 270.765 C 60.779 271.090,60.647 271.211,60.182 271.127 C 59.797 271.057,59.404 271.225,59.308 271.500 C 59.079 272.154,59.660 272.137,60.584 271.461 C 61.160 271.040,61.207 270.851,60.799 270.599 C 60.443 270.380,60.373 270.432,60.578 270.765 M57.082 280.309 C 56.618 280.822,56.554 281.181,56.851 281.609 C 57.210 282.127,57.239 282.126,57.083 281.600 C 56.985 281.270,57.179 280.685,57.514 280.300 C 58.315 279.381,57.915 279.389,57.082 280.309 M123.467 281.067 C 123.098 281.435,123.129 289.509,123.500 289.737 C 123.665 289.839,123.800 287.869,123.800 285.360 C 123.800 282.852,123.785 280.799,123.767 280.800 C 123.748 280.800,123.613 280.920,123.467 281.067 M178.655 281.800 C 178.782 282.130,179.149 282.400,179.471 282.400 C 179.979 282.400,179.978 282.320,179.457 281.800 C 179.127 281.470,178.760 281.200,178.641 281.200 C 178.522 281.200,178.529 281.470,178.655 281.800 M179.032 284.260 C 178.693 285.144,178.977 285.350,179.562 284.645 C 179.846 284.303,179.886 283.977,179.661 283.838 C 179.454 283.710,179.171 283.899,179.032 284.260 M113.400 290.000 C 113.536 290.220,113.427 290.400,113.157 290.400 C 112.887 290.400,112.761 290.494,112.876 290.609 C 113.217 290.950,114.415 290.349,114.174 289.958 C 114.052 289.761,113.773 289.600,113.553 289.600 C 113.333 289.600,113.264 289.780,113.400 290.000 M123.232 301.276 C 123.214 304.068,123.335 306.437,123.500 306.539 C 123.797 306.723,123.722 297.369,123.420 296.600 C 123.334 296.380,123.249 298.484,123.232 301.276 M50.962 298.068 C 50.309 298.812,50.296 298.901,50.874 298.690 C 51.245 298.555,51.627 298.660,51.724 298.922 C 51.820 299.185,51.877 298.905,51.849 298.300 C 51.822 297.695,51.783 297.200,51.762 297.200 C 51.741 297.200,51.381 297.591,50.962 298.068 M179.980 300.690 C 179.871 301.619,179.933 302.227,180.120 302.040 C 180.306 301.854,180.396 301.094,180.319 300.351 C 180.183 299.033,180.175 299.042,179.980 300.690 M123.557 307.700 C 123.318 308.254,123.256 316.787,123.489 316.930 C 123.660 317.036,123.807 314.979,123.815 312.361 C 123.827 308.268,123.768 307.209,123.557 307.700 M180.134 309.027 C 180.002 309.372,180.098 309.858,180.347 310.107 C 180.684 310.444,180.800 310.284,180.800 309.480 C 180.800 308.277,180.501 308.073,180.134 309.027 M108.400 311.184 C 108.400 311.396,108.006 311.936,107.525 312.384 C 107.041 312.835,106.873 313.200,107.148 313.200 C 107.441 313.200,107.523 313.407,107.347 313.700 C 107.140 314.044,107.256 314.030,107.719 313.655 C 108.089 313.355,108.293 312.950,108.172 312.755 C 108.051 312.560,108.105 312.400,108.291 312.400 C 108.477 312.400,108.657 312.040,108.690 311.600 C 108.723 311.160,108.671 310.800,108.575 310.800 C 108.479 310.800,108.400 310.973,108.400 311.184 M106.130 316.272 C 106.286 316.532,106.230 316.858,106.007 316.996 C 105.783 317.134,105.603 317.462,105.606 317.724 C 105.610 318.059,105.699 318.070,105.906 317.760 C 106.068 317.518,106.445 317.241,106.744 317.145 C 107.163 317.011,107.123 316.837,106.567 316.385 C 106.171 316.063,105.974 316.013,106.130 316.272 M180.762 318.899 C 180.975 319.459,181.070 320.026,180.974 320.159 C 180.879 320.291,180.925 320.305,181.078 320.188 C 181.595 319.795,181.528 318.838,180.949 318.358 C 180.462 317.953,180.433 318.036,180.762 318.899 M123.269 325.367 C 123.231 328.648,123.289 331.244,123.398 331.135 C 123.717 330.816,123.833 324.830,123.575 322.000 C 123.405 320.131,123.319 321.078,123.269 325.367 M41.004 327.193 C 40.866 327.417,40.898 327.603,41.076 327.606 C 41.254 327.609,41.130 327.787,40.800 328.000 C 40.279 328.337,40.287 328.389,40.857 328.394 C 41.219 328.397,41.616 328.136,41.740 327.813 C 42.003 327.126,41.373 326.596,41.004 327.193 M39.600 332.113 C 38.955 332.636,38.657 334.536,39.279 334.151 C 39.485 334.024,39.551 333.817,39.425 333.692 C 39.300 333.566,39.472 333.044,39.808 332.532 C 40.495 331.483,40.461 331.413,39.600 332.113 M123.346 342.600 C 123.347 344.800,123.414 345.649,123.495 344.487 C 123.576 343.324,123.576 341.524,123.493 340.487 C 123.411 339.449,123.345 340.400,123.346 342.600 M181.708 344.020 C 181.648 344.819,182.179 345.081,182.572 344.445 C 182.693 344.250,182.561 343.899,182.279 343.666 C 181.894 343.346,181.753 343.435,181.708 344.020 M35.369 345.336 C 35.034 346.059,35.057 346.267,35.469 346.267 C 35.761 346.267,36.000 345.847,36.000 345.333 C 36.000 344.169,35.910 344.170,35.369 345.336 M182.216 348.050 C 182.366 348.522,182.326 348.801,182.126 348.678 C 181.928 348.555,181.739 348.848,181.706 349.328 C 181.648 350.179,181.661 350.181,182.223 349.424 C 182.899 348.514,182.987 347.200,182.373 347.200 C 182.120 347.200,182.056 347.546,182.216 348.050 M32.200 353.200 C 32.336 353.420,32.257 353.600,32.024 353.600 C 31.791 353.600,31.600 353.774,31.600 353.987 C 31.600 354.201,31.870 354.271,32.200 354.145 C 32.881 353.883,33.023 352.800,32.376 352.800 C 32.143 352.800,32.064 352.980,32.200 353.200 M181.867 354.267 C 181.309 354.824,181.633 355.600,182.424 355.600 C 182.880 355.600,183.135 355.419,182.996 355.193 C 182.858 354.970,182.579 354.889,182.377 355.014 C 182.175 355.139,182.116 354.962,182.247 354.621 C 182.496 353.972,182.322 353.811,181.867 354.267 M119.205 357.609 C 119.438 358.044,119.796 358.400,120.002 358.400 C 120.553 358.400,120.033 357.298,119.360 357.040 C 118.896 356.862,118.865 356.974,119.205 357.609 M30.148 358.992 C 29.810 359.872,30.181 360.146,30.762 359.445 C 31.090 359.051,31.107 358.789,30.817 358.610 C 30.584 358.467,30.283 358.638,30.148 358.992 M29.042 361.834 C 28.908 362.183,28.977 362.768,29.194 363.134 C 29.520 363.683,29.573 363.624,29.495 362.800 C 29.433 362.147,29.584 361.838,29.930 361.910 C 30.221 361.970,30.345 361.835,30.206 361.610 C 29.835 361.010,29.320 361.109,29.042 361.834 M182.244 363.528 C 182.115 363.738,182.262 364.120,182.572 364.377 C 183.017 364.746,183.117 364.716,183.046 364.234 C 182.925 363.408,182.532 363.062,182.244 363.528 M24.815 374.182 C 24.303 374.799,24.560 375.600,25.270 375.600 C 25.503 375.600,25.601 375.249,25.489 374.819 C 25.377 374.390,25.491 373.954,25.742 373.851 C 26.075 373.715,26.076 373.654,25.749 373.632 C 25.501 373.614,25.080 373.862,24.815 374.182 M183.400 388.247 C 183.400 388.986,183.625 389.677,183.900 389.783 C 184.239 389.913,184.400 389.542,184.400 388.630 C 184.400 387.891,184.175 387.199,183.900 387.094 C 183.561 386.964,183.400 387.335,183.400 388.247 M184.344 395.300 C 184.265 396.015,184.303 397.860,184.429 399.400 C 184.649 402.084,184.662 402.030,184.729 398.100 C 184.799 394.051,184.623 392.773,184.344 395.300 M17.200 396.600 C 16.922 396.935,16.879 397.200,17.102 397.200 C 17.322 397.200,17.726 396.930,18.000 396.600 C 18.278 396.265,18.321 396.000,18.098 396.000 C 17.878 396.000,17.474 396.270,17.200 396.600 M99.902 396.266 C 100.179 396.377,100.303 396.633,100.179 396.834 C 100.055 397.035,100.098 397.214,100.276 397.231 C 100.454 397.247,100.931 397.324,101.337 397.401 C 101.742 397.477,101.968 397.435,101.840 397.307 C 101.712 397.179,101.830 396.787,102.103 396.437 C 102.545 395.870,102.521 395.862,101.883 396.363 C 101.340 396.790,101.054 396.814,100.703 396.463 C 100.448 396.208,100.051 396.014,99.820 396.032 C 99.589 396.049,99.626 396.154,99.902 396.266 M111.671 398.267 C 111.819 399.030,112.800 399.502,112.800 398.810 C 112.800 398.558,112.620 398.464,112.400 398.600 C 112.180 398.736,112.000 398.672,112.000 398.457 C 112.000 398.242,112.225 397.976,112.500 397.865 C 112.788 397.749,112.691 397.650,112.271 397.632 C 111.796 397.611,111.587 397.833,111.671 398.267 M120.406 399.038 C 120.416 399.643,120.963 400.194,121.670 400.311 C 122.496 400.447,122.985 399.762,122.345 399.366 C 122.052 399.185,121.984 399.250,122.162 399.538 C 122.582 400.218,121.973 400.100,121.131 399.338 C 120.729 398.974,120.403 398.839,120.406 399.038 M15.992 401.410 C 15.714 401.745,15.602 402.135,15.743 402.276 C 15.884 402.418,16.003 402.278,16.006 401.967 C 16.011 401.497,16.077 401.502,16.388 401.995 C 16.684 402.463,16.750 402.398,16.697 401.695 C 16.617 400.632,16.633 400.638,15.992 401.410 M123.632 401.851 C 123.614 402.099,123.832 402.495,124.116 402.731 C 124.510 403.057,124.649 402.951,124.699 402.285 C 124.745 401.666,124.667 401.568,124.431 401.950 C 124.151 402.403,124.062 402.402,123.880 401.945 C 123.761 401.645,123.649 401.603,123.632 401.851 M79.909 406.576 C 79.282 407.439,79.279 407.518,79.874 407.430 C 80.235 407.377,80.590 406.944,80.663 406.467 C 80.827 405.388,80.766 405.397,79.909 406.576 M124.200 406.000 C 124.064 406.220,124.098 406.403,124.276 406.406 C 124.454 406.409,124.332 406.582,124.003 406.789 C 123.495 407.111,123.489 407.243,123.962 407.683 C 124.377 408.069,124.446 408.074,124.235 407.700 C 124.080 407.425,124.132 407.200,124.352 407.200 C 124.571 407.200,124.723 406.840,124.690 406.400 C 124.622 405.493,124.550 405.434,124.200 406.000 M184.493 407.200 C 184.493 407.970,184.575 408.285,184.676 407.900 C 184.776 407.515,184.776 406.885,184.676 406.500 C 184.575 406.115,184.493 406.430,184.493 407.200 M78.681 410.639 C 78.286 411.168,78.108 411.600,78.285 411.600 C 78.634 411.600,79.738 410.001,79.528 409.800 C 79.457 409.733,79.077 410.111,78.681 410.639 M123.600 410.787 C 123.600 411.323,123.792 411.501,124.200 411.345 C 124.530 411.218,124.800 410.864,124.800 410.557 C 124.800 410.251,124.530 410.000,124.200 410.000 C 123.870 410.000,123.600 410.354,123.600 410.787 M203.998 411.100 C 203.897 429.027,204.047 465.780,204.222 465.956 C 204.357 466.090,248.237 466.200,301.733 466.200 L 399.000 466.200 399.103 438.500 L 399.205 410.800 302.147 410.800 C 210.184 410.800,205.060 410.837,204.543 411.500 C 204.024 412.167,204.010 412.167,204.242 411.500 C 204.376 411.115,204.376 410.800,204.243 410.800 C 204.109 410.800,203.999 410.935,203.998 411.100 M10.946 416.889 C 11.074 417.289,10.900 417.728,10.532 417.934 C 10.183 418.129,10.064 418.393,10.269 418.519 C 10.872 418.891,11.591 417.419,11.126 416.764 C 10.806 416.315,10.769 416.340,10.946 416.889 M8.829 422.254 C 8.354 422.858,8.020 423.840,8.046 424.554 C 8.091 425.761,8.101 425.753,8.383 424.301 C 8.543 423.477,9.000 422.442,9.399 422.001 C 9.798 421.561,10.019 421.200,9.891 421.200 C 9.763 421.200,9.285 421.674,8.829 422.254 M185.693 424.800 C 185.693 425.570,185.775 425.885,185.876 425.500 C 185.976 425.115,185.976 424.485,185.876 424.100 C 185.775 423.715,185.693 424.030,185.693 424.800 M74.001 424.000 C 73.602 425.284,73.708 425.571,74.436 425.181 C 74.856 424.956,75.200 424.678,75.200 424.562 C 75.200 424.447,75.035 424.455,74.834 424.579 C 74.633 424.703,74.377 424.579,74.266 424.302 C 74.154 424.026,74.035 423.890,74.001 424.000 M123.600 426.235 C 123.600 427.108,123.848 428.177,124.152 428.611 C 124.455 429.045,124.795 429.760,124.906 430.200 C 125.061 430.815,125.118 430.746,125.154 429.900 C 125.179 429.295,124.998 428.800,124.751 428.800 C 124.459 428.800,124.493 428.565,124.851 428.125 C 125.332 427.534,125.313 427.483,124.700 427.713 C 124.315 427.857,124.000 427.801,124.000 427.587 C 124.000 427.374,124.180 427.200,124.400 427.200 C 124.975 427.200,124.870 426.327,124.187 425.424 C 123.639 424.699,123.600 424.753,123.600 426.235 M4.600 435.906 C 4.380 436.068,4.166 436.650,4.125 437.200 C 4.084 437.750,4.145 437.974,4.260 437.698 C 4.374 437.421,4.632 437.296,4.832 437.419 C 5.031 437.543,5.157 437.184,5.110 436.622 C 5.064 436.060,5.020 435.603,5.013 435.606 C 5.006 435.609,4.820 435.744,4.600 435.906 M69.312 439.484 C 69.196 439.787,69.213 440.147,69.351 440.284 C 69.488 440.421,69.603 440.188,69.606 439.767 C 69.611 439.194,69.698 439.135,69.950 439.534 C 70.229 439.973,70.327 439.967,70.506 439.500 C 70.634 439.166,70.477 438.933,70.124 438.933 C 69.794 438.933,69.429 439.181,69.312 439.484 M5.345 445.898 C 5.854 446.744,7.230 447.342,6.942 446.592 C 6.809 446.247,6.605 446.062,6.487 446.179 C 6.370 446.297,5.997 446.170,5.660 445.897 C 5.171 445.501,5.107 445.501,5.345 445.898 M67.494 446.639 C 67.363 446.771,67.363 447.160,67.496 447.505 C 67.636 447.870,67.569 448.028,67.335 447.883 C 67.114 447.747,66.933 447.894,66.933 448.211 C 66.933 448.631,67.071 448.673,67.440 448.367 C 67.718 448.136,67.920 447.599,67.888 447.173 C 67.823 446.306,67.825 446.309,67.494 446.639 M37.000 450.800 C 37.398 451.240,37.904 451.600,38.123 451.600 C 38.343 451.600,38.107 451.240,37.600 450.800 C 37.093 450.360,36.587 450.000,36.477 450.000 C 36.366 450.000,36.602 450.360,37.000 450.800 M144.262 466.100 C 144.364 466.265,144.797 466.400,145.224 466.400 C 145.651 466.400,146.000 466.265,146.000 466.100 C 146.000 465.935,145.567 465.800,145.038 465.800 C 144.509 465.800,144.160 465.935,144.262 466.100 M182.885 471.044 C 182.280 471.495,182.336 471.545,183.369 471.471 C 184.011 471.425,184.601 471.196,184.680 470.961 C 184.877 470.370,183.717 470.424,182.885 471.044 " stroke="none" fill="#fc8404" fill-rule="evenodd"></path><path id="path1" d="M98.882 160.227 C 98.390 160.572,98.089 161.020,98.214 161.223 C 98.339 161.425,98.162 161.484,97.821 161.353 C 97.305 161.155,97.195 161.511,97.172 163.457 C 97.156 164.746,97.021 165.492,96.872 165.115 C 96.485 164.140,95.781 164.782,95.682 166.200 C 95.636 166.860,95.362 167.580,95.074 167.800 C 94.337 168.363,93.961 169.529,94.424 169.815 C 94.638 169.947,94.680 170.268,94.517 170.528 C 94.220 171.001,94.174 171.202,94.061 172.500 C 94.027 172.885,93.685 173.213,93.300 173.228 C 92.688 173.253,92.697 173.294,93.371 173.558 C 94.060 173.828,94.071 173.887,93.471 174.117 C 93.098 174.260,92.800 174.806,92.800 175.345 C 92.800 175.878,92.519 176.422,92.175 176.554 C 91.831 176.686,91.654 176.963,91.781 177.170 C 91.909 177.376,91.830 177.658,91.607 177.796 C 91.383 177.934,91.200 178.937,91.200 180.024 C 91.200 181.111,91.026 182.000,90.813 182.000 C 90.599 182.000,90.522 181.748,90.640 181.440 C 90.758 181.133,90.701 180.786,90.513 180.670 C 90.142 180.440,90.122 180.558,89.905 184.400 C 89.776 186.693,89.669 186.984,89.001 186.864 C 88.322 186.743,88.303 186.803,88.822 187.441 C 89.309 188.041,89.310 188.099,88.832 187.811 C 88.404 187.553,88.328 187.636,88.524 188.147 C 88.711 188.633,88.502 188.933,87.789 189.204 C 86.803 189.579,86.630 190.328,87.400 190.894 C 87.651 191.078,87.621 191.190,87.321 191.194 C 87.016 191.198,86.890 191.701,86.975 192.575 C 87.064 193.497,86.919 194.022,86.533 194.170 C 86.171 194.309,86.063 194.222,86.241 193.934 C 86.396 193.682,86.351 193.583,86.141 193.713 C 85.930 193.843,85.726 195.077,85.687 196.454 C 85.637 198.224,85.438 199.059,85.008 199.299 C 84.674 199.487,84.400 199.892,84.400 200.199 C 84.400 200.507,83.950 201.244,83.400 201.838 C 82.669 202.627,82.512 203.053,82.819 203.423 C 83.112 203.776,83.112 204.007,82.819 204.188 C 82.589 204.331,82.394 205.022,82.386 205.724 C 82.378 206.426,82.114 207.450,81.800 208.000 C 81.486 208.550,81.222 209.395,81.214 209.877 C 81.206 210.360,80.880 210.990,80.489 211.277 C 80.037 211.609,79.781 212.311,79.789 213.200 C 79.796 214.074,79.502 214.898,79.007 215.393 C 78.437 215.963,78.175 216.860,78.074 218.590 C 77.997 219.912,77.746 221.110,77.517 221.251 C 77.158 221.473,76.885 222.494,76.712 224.262 C 76.687 224.516,76.395 224.620,76.064 224.492 C 75.626 224.325,75.532 224.445,75.718 224.931 C 75.859 225.299,75.812 225.600,75.613 225.600 C 75.413 225.600,75.260 226.303,75.272 227.163 C 75.295 228.880,74.948 229.739,74.372 229.383 C 74.024 229.168,73.917 229.700,73.866 231.900 C 73.854 232.395,73.693 232.800,73.508 232.800 C 73.323 232.800,73.359 233.149,73.587 233.576 C 73.883 234.130,73.870 234.433,73.539 234.638 C 73.269 234.805,73.184 234.749,73.336 234.504 C 73.479 234.273,73.364 233.995,73.081 233.887 C 72.759 233.763,72.537 234.055,72.486 234.667 C 72.431 235.331,72.565 235.563,72.903 235.392 C 73.176 235.254,73.067 235.412,72.660 235.744 C 72.253 236.075,72.031 236.526,72.166 236.746 C 72.302 236.965,72.230 237.258,72.007 237.396 C 71.783 237.534,71.600 237.457,71.600 237.224 C 71.600 236.426,70.970 236.799,70.907 237.634 C 70.861 238.256,71.017 238.409,71.522 238.233 C 72.133 238.021,72.137 238.048,71.565 238.499 C 71.216 238.775,70.962 239.425,71.002 239.944 C 71.041 240.463,70.696 241.254,70.236 241.703 C 69.776 242.151,69.625 242.391,69.900 242.235 C 70.207 242.062,70.400 242.194,70.400 242.576 C 70.400 242.919,70.200 243.155,69.956 243.100 C 69.706 243.044,69.461 243.652,69.397 244.487 C 69.335 245.304,68.995 246.262,68.642 246.615 C 67.766 247.491,67.812 248.242,68.700 247.561 C 69.085 247.266,68.976 247.500,68.458 248.082 C 67.940 248.665,67.613 249.298,67.732 249.489 C 67.850 249.681,67.782 250.100,67.580 250.419 C 67.328 250.818,67.210 250.843,67.206 250.500 C 67.184 248.656,66.570 250.491,66.551 252.459 C 66.533 254.340,66.360 255.040,65.812 255.440 C 65.380 255.756,65.078 256.525,65.049 257.381 C 65.022 258.161,64.794 258.799,64.543 258.799 C 63.943 258.800,63.703 259.503,63.757 261.100 C 63.782 261.863,63.603 262.400,63.324 262.400 C 62.551 262.400,62.235 263.261,62.152 265.599 C 62.047 268.526,62.083 268.407,61.397 268.144 C 60.908 267.956,60.820 268.228,60.928 269.596 C 61.041 271.027,60.925 271.343,60.154 271.694 C 59.382 272.045,59.249 272.408,59.262 274.122 C 59.274 275.665,59.092 276.286,58.485 276.769 C 57.951 277.194,57.709 277.836,57.746 278.734 C 57.777 279.502,57.545 280.266,57.200 280.534 C 56.667 280.948,56.667 280.911,57.200 280.200 C 57.748 279.470,57.742 279.445,57.142 279.914 C 56.704 280.257,56.514 280.926,56.575 281.914 C 56.680 283.629,56.152 284.944,55.464 284.680 C 55.131 284.552,54.965 285.285,54.909 287.119 C 54.852 289.024,54.640 289.914,54.137 290.371 C 53.490 290.958,53.482 290.947,54.022 290.200 C 54.535 289.490,54.531 289.453,53.989 289.875 C 53.653 290.136,53.338 290.838,53.289 291.434 C 53.240 292.031,53.004 292.754,52.765 293.042 C 52.526 293.330,52.464 293.781,52.627 294.044 C 52.815 294.348,52.754 294.419,52.462 294.238 C 52.138 294.038,52.000 294.506,52.000 295.800 C 52.000 296.838,51.837 297.546,51.628 297.417 C 51.423 297.291,51.125 297.398,50.966 297.655 C 50.795 297.931,50.849 298.017,51.096 297.864 C 51.327 297.721,51.625 297.888,51.758 298.235 C 52.093 299.108,52.050 299.498,51.683 298.921 C 51.480 298.602,51.182 298.568,50.789 298.821 C 50.271 299.154,50.273 299.248,50.800 299.594 C 51.237 299.881,51.258 299.989,50.876 299.994 C 50.527 299.998,50.411 300.375,50.529 301.121 C 50.626 301.737,50.457 302.582,50.153 302.997 C 49.849 303.413,49.600 303.575,49.600 303.356 C 49.600 303.138,49.735 302.785,49.900 302.572 C 50.065 302.358,49.886 302.521,49.502 302.933 C 49.118 303.346,48.894 303.829,49.005 304.008 C 49.115 304.186,48.979 304.415,48.702 304.516 C 48.300 304.663,48.300 304.806,48.700 305.230 C 48.975 305.522,49.195 305.949,49.188 306.180 C 49.181 306.411,48.992 306.285,48.768 305.900 C 48.196 304.918,47.810 305.030,47.742 306.198 C 47.705 306.849,47.844 307.100,48.142 306.921 C 48.462 306.729,48.457 306.823,48.126 307.233 C 47.865 307.556,47.595 308.716,47.526 309.810 C 47.424 311.417,47.265 311.789,46.700 311.744 C 46.141 311.700,46.000 312.011,46.000 313.287 C 46.000 314.567,45.876 314.838,45.379 314.647 C 45.023 314.511,44.863 314.578,45.003 314.805 C 45.137 315.022,45.093 315.200,44.905 315.200 C 44.717 315.200,44.580 315.695,44.600 316.300 C 44.642 317.519,44.023 319.262,43.634 319.021 C 43.497 318.936,43.331 319.977,43.266 321.334 C 43.201 322.690,42.953 323.980,42.715 324.200 C 42.414 324.479,42.380 324.430,42.603 324.038 C 42.813 323.670,42.770 323.571,42.479 323.751 C 42.235 323.902,42.136 324.290,42.260 324.613 C 42.384 324.936,42.286 325.200,42.043 325.200 C 41.799 325.200,41.600 325.448,41.600 325.751 C 41.600 326.054,41.330 326.526,41.000 326.800 C 40.314 327.369,40.209 328.000,40.800 328.000 C 41.020 328.000,41.155 327.865,41.100 327.700 C 41.045 327.535,41.135 327.355,41.300 327.300 C 41.465 327.245,41.600 327.290,41.600 327.400 C 41.600 327.510,41.600 327.780,41.600 328.000 C 41.600 328.220,41.270 328.400,40.867 328.400 C 40.256 328.400,40.137 328.717,40.155 330.300 C 40.168 331.559,40.016 332.168,39.702 332.105 C 39.414 332.047,39.328 332.269,39.482 332.670 C 39.633 333.063,39.573 333.231,39.335 333.083 C 39.114 332.947,38.933 333.089,38.933 333.400 C 38.933 333.711,39.128 333.856,39.367 333.724 C 39.605 333.591,39.575 333.725,39.300 334.021 C 39.025 334.318,38.800 335.094,38.800 335.747 C 38.800 336.399,38.689 336.822,38.552 336.686 C 37.972 336.105,37.189 337.603,37.412 338.868 C 37.539 339.587,37.521 340.055,37.374 339.907 C 36.930 339.464,35.983 340.691,36.244 341.370 C 36.377 341.717,36.300 342.000,36.074 342.000 C 35.817 342.000,35.735 342.853,35.856 344.270 C 36.039 346.396,36.006 346.504,35.349 345.970 C 34.904 345.609,34.757 345.583,34.947 345.900 C 35.112 346.175,35.062 346.400,34.836 346.400 C 34.610 346.400,34.447 347.002,34.475 347.737 C 34.532 349.274,34.124 350.133,33.458 349.878 C 33.156 349.762,32.954 350.399,32.874 351.724 C 32.797 352.989,32.514 353.921,32.120 354.209 C 31.774 354.462,31.578 354.924,31.685 355.235 C 31.792 355.546,31.645 356.475,31.358 357.300 C 31.071 358.125,30.945 358.800,31.080 358.800 C 31.214 358.800,31.004 359.154,30.612 359.587 C 30.203 360.039,29.989 360.714,30.109 361.173 C 30.234 361.651,30.133 361.938,29.859 361.886 C 29.594 361.837,29.439 362.223,29.493 362.800 L 29.586 363.800 29.028 362.805 C 28.508 361.878,28.475 361.983,28.549 364.320 C 28.593 365.701,28.470 367.049,28.276 367.315 C 28.050 367.627,28.010 367.515,28.163 367.000 C 28.398 366.212,28.393 366.212,27.801 366.976 C 27.457 367.420,27.200 368.576,27.200 369.676 C 27.200 371.101,27.048 371.600,26.613 371.600 C 26.229 371.600,26.114 371.831,26.281 372.266 C 26.441 372.685,26.377 372.833,26.108 372.667 C 25.835 372.498,25.680 372.917,25.680 373.828 C 25.680 375.562,25.420 375.880,24.574 375.179 C 24.015 374.715,23.947 374.747,24.064 375.422 C 24.139 375.850,24.380 376.332,24.600 376.494 C 24.862 376.686,24.854 376.790,24.578 376.794 C 24.346 376.797,24.111 377.562,24.057 378.492 C 24.002 379.423,23.689 380.481,23.362 380.842 C 23.034 381.204,22.795 381.657,22.831 381.850 C 22.998 382.763,22.759 383.622,22.400 383.400 C 22.180 383.264,22.000 383.433,22.000 383.776 C 22.000 384.119,21.842 384.400,21.649 384.400 C 21.456 384.400,21.349 384.985,21.411 385.700 C 21.534 387.113,20.961 388.147,20.287 387.730 C 20.023 387.567,19.960 387.720,20.119 388.134 C 20.260 388.500,20.239 388.800,20.073 388.800 C 19.907 388.800,19.753 389.385,19.731 390.100 C 19.652 392.618,19.436 393.512,18.954 393.327 C 18.637 393.205,18.504 393.557,18.561 394.372 C 18.622 395.251,18.469 395.602,18.023 395.606 C 17.523 395.611,17.506 395.680,17.941 395.955 C 18.367 396.225,18.297 396.427,17.609 396.909 C 17.129 397.245,16.771 397.853,16.814 398.260 C 17.020 400.213,16.772 402.576,16.420 402.019 C 16.218 401.700,16.159 401.267,16.288 401.057 C 16.418 400.848,16.313 400.807,16.055 400.966 C 15.798 401.125,15.703 401.443,15.845 401.672 C 15.986 401.902,15.854 402.247,15.551 402.439 C 15.119 402.713,15.113 402.789,15.524 402.794 C 15.842 402.798,15.925 402.996,15.735 403.300 C 15.564 403.575,15.368 404.156,15.300 404.591 C 15.232 405.027,14.976 405.567,14.730 405.791 C 14.410 406.084,14.373 406.029,14.600 405.600 C 14.831 405.162,14.793 405.114,14.459 405.420 C 14.207 405.651,13.971 406.593,13.935 407.514 C 13.878 408.963,13.786 409.122,13.258 408.695 C 12.771 408.301,12.708 408.302,12.947 408.700 C 13.112 408.975,13.084 409.200,12.884 409.200 C 12.685 409.200,12.486 410.505,12.442 412.100 C 12.379 414.430,12.212 415.118,11.592 415.600 C 11.067 416.009,10.934 416.380,11.174 416.764 C 11.611 417.464,10.855 418.796,10.169 418.533 C 9.826 418.401,9.705 418.833,9.764 419.987 C 9.820 421.079,9.639 421.791,9.224 422.114 C 8.663 422.551,8.660 422.519,9.200 421.800 C 9.752 421.065,9.745 421.043,9.124 421.529 C 8.737 421.832,8.552 422.331,8.692 422.695 C 8.826 423.045,8.770 423.229,8.568 423.104 C 8.366 422.979,8.176 423.534,8.146 424.338 C 8.048 426.962,7.809 427.999,7.300 428.000 C 7.025 428.000,6.778 428.270,6.750 428.600 C 6.723 428.930,6.678 429.407,6.650 429.660 C 6.622 429.913,6.240 430.260,5.800 430.432 C 5.360 430.603,5.225 430.756,5.500 430.772 C 5.775 430.787,6.000 430.991,6.000 431.224 C 6.000 431.457,5.804 431.526,5.565 431.378 C 5.285 431.205,5.158 431.518,5.208 432.255 C 5.382 434.841,5.207 436.051,4.700 435.765 C 4.300 435.539,4.300 435.590,4.700 436.021 C 5.275 436.641,5.382 437.760,4.834 437.421 C 4.633 437.297,4.365 437.421,4.238 437.698 C 4.111 437.974,4.115 437.772,4.247 437.250 C 4.410 436.599,4.343 436.388,4.032 436.580 C 3.783 436.734,3.619 437.454,3.668 438.180 C 3.723 438.997,3.492 439.765,3.063 440.194 C 2.064 441.193,2.295 445.330,3.361 445.536 C 3.821 445.624,3.992 445.511,3.820 445.232 C 3.668 444.987,3.349 444.908,3.111 445.055 C 2.843 445.221,2.792 445.136,2.978 444.836 C 3.210 444.460,3.431 444.477,3.940 444.913 C 4.303 445.224,4.926 445.594,5.325 445.736 C 5.775 445.896,5.936 446.185,5.749 446.497 C 5.570 446.795,5.753 446.755,6.198 446.400 C 6.869 445.864,6.925 445.866,6.719 446.418 C 6.566 446.827,6.737 447.055,7.221 447.092 C 7.625 447.122,7.904 446.934,7.843 446.673 C 7.781 446.413,7.807 446.336,7.900 446.502 C 7.992 446.669,8.261 446.686,8.496 446.541 C 8.731 446.395,8.814 446.454,8.679 446.672 C 8.526 446.919,9.723 447.084,11.880 447.111 C 14.243 447.142,15.427 447.320,15.648 447.678 C 15.826 447.965,16.157 448.223,16.385 448.250 C 16.613 448.277,16.845 448.335,16.900 448.378 C 17.363 448.736,19.201 448.653,19.206 448.273 C 19.211 447.924,19.290 447.920,19.506 448.256 C 19.690 448.541,20.961 448.691,22.900 448.656 C 24.605 448.625,26.000 448.735,26.000 448.900 C 26.000 449.065,26.225 449.155,26.500 449.100 C 26.775 449.045,26.970 449.180,26.934 449.400 C 26.839 449.967,28.936 450.024,29.293 449.464 C 29.499 449.140,29.590 449.134,29.594 449.446 C 29.598 449.725,30.683 449.918,32.500 449.962 C 34.095 450.001,35.760 450.102,36.200 450.186 C 36.640 450.270,37.135 450.353,37.300 450.369 C 37.465 450.386,37.600 450.602,37.600 450.849 C 37.600 451.150,37.370 451.124,36.900 450.768 C 36.296 450.311,36.271 450.318,36.720 450.819 C 37.072 451.213,38.169 451.419,40.120 451.459 C 45.908 451.577,47.565 451.733,47.316 452.136 C 47.169 452.373,47.338 452.433,47.730 452.282 C 48.123 452.132,48.352 452.214,48.295 452.485 C 48.229 452.804,49.528 452.950,52.598 452.971 C 56.226 452.995,57.118 453.123,57.698 453.700 C 58.442 454.442,61.441 454.714,61.000 454.000 C 60.864 453.780,60.943 453.600,61.176 453.600 C 61.409 453.600,61.600 453.787,61.600 454.016 C 61.600 454.252,62.305 454.391,63.226 454.336 C 64.572 454.257,64.819 454.117,64.663 453.520 C 64.559 453.123,64.638 452.900,64.837 453.023 C 65.037 453.146,65.203 453.012,65.206 452.724 C 65.211 452.343,65.318 452.364,65.600 452.800 C 66.033 453.470,65.989 453.618,66.240 450.648 C 66.379 449.011,66.591 448.600,67.300 448.600 C 67.539 448.600,67.763 448.203,67.799 447.719 C 67.834 447.234,67.731 446.919,67.569 447.019 C 67.407 447.119,67.477 446.772,67.725 446.247 C 67.973 445.722,68.366 445.366,68.600 445.455 C 68.833 445.545,69.062 445.154,69.109 444.587 C 69.166 443.899,69.042 443.650,68.736 443.840 C 68.422 444.034,68.388 443.946,68.628 443.562 C 68.821 443.253,69.040 442.550,69.115 442.000 C 69.189 441.450,69.418 440.829,69.625 440.620 C 69.831 440.411,69.987 439.961,69.972 439.620 C 69.952 439.181,69.844 439.233,69.600 439.800 C 69.347 440.388,69.249 440.432,69.228 439.967 C 69.189 439.079,69.638 438.734,70.211 439.210 C 70.575 439.511,70.693 439.285,70.682 438.306 C 70.661 436.398,71.193 434.404,71.732 434.372 C 71.989 434.356,71.840 434.189,71.400 434.000 C 70.644 433.675,70.651 433.655,71.524 433.628 C 72.032 433.613,72.342 433.429,72.212 433.220 C 72.083 433.011,72.318 432.658,72.734 432.436 C 73.361 432.100,73.494 431.550,73.517 429.190 C 73.533 427.471,73.752 426.092,74.072 425.698 C 74.382 425.316,74.408 425.162,74.135 425.325 C 73.839 425.503,73.719 425.349,73.805 424.902 C 73.878 424.516,73.953 424.121,73.969 424.024 C 73.986 423.926,74.237 424.171,74.527 424.567 C 74.989 425.200,75.065 425.030,75.150 423.168 C 75.258 420.793,75.456 420.264,76.089 420.655 C 76.339 420.809,76.409 420.739,76.255 420.489 C 76.108 420.251,76.146 419.957,76.340 419.837 C 76.533 419.718,76.642 419.161,76.580 418.600 C 76.497 417.843,76.637 417.609,77.125 417.690 C 77.669 417.781,77.799 417.355,77.885 415.200 C 78.024 411.693,78.180 411.000,78.827 411.000 C 79.185 411.000,79.390 410.505,79.411 409.588 C 79.429 408.811,79.597 407.928,79.784 407.626 C 80.034 407.221,79.976 407.165,79.562 407.415 C 79.084 407.703,79.082 407.652,79.545 407.081 C 79.845 406.711,80.278 406.525,80.507 406.666 C 80.754 406.819,80.803 406.729,80.627 406.444 C 80.464 406.181,80.549 405.703,80.815 405.382 C 81.080 405.062,81.152 404.800,80.973 404.800 C 80.794 404.800,80.982 404.555,81.392 404.255 C 82.505 403.441,82.556 402.311,81.467 402.586 C 80.624 402.798,80.625 402.791,81.500 402.341 C 82.485 401.834,82.688 400.983,81.900 400.665 C 81.500 400.504,81.500 400.457,81.900 400.432 C 82.190 400.413,82.403 399.853,82.406 399.100 C 82.409 398.385,82.587 397.530,82.800 397.200 C 83.082 396.764,83.189 396.743,83.194 397.124 C 83.197 397.412,83.392 397.528,83.627 397.383 C 83.862 397.238,83.977 396.912,83.883 396.660 C 83.382 395.321,84.238 394.666,86.529 394.633 C 88.097 394.610,88.800 394.755,88.800 395.100 C 88.800 395.375,88.845 395.607,88.900 395.615 C 91.749 396.046,92.074 396.044,91.799 395.599 C 91.574 395.234,91.700 395.225,92.325 395.560 C 92.778 395.802,94.499 396.000,96.150 396.000 C 97.802 396.000,99.264 396.180,99.400 396.400 C 99.536 396.620,99.862 396.797,100.124 396.794 C 100.410 396.790,100.361 396.633,100.000 396.400 C 99.670 396.187,99.589 396.009,99.820 396.006 C 100.051 396.003,100.448 396.208,100.703 396.463 C 101.054 396.814,101.340 396.791,101.883 396.370 C 102.463 395.920,102.449 395.990,101.811 396.736 C 101.233 397.413,101.180 397.625,101.611 397.530 C 101.935 397.458,102.332 397.220,102.494 397.000 C 102.685 396.740,102.790 396.750,102.794 397.029 C 102.798 397.294,104.034 397.477,106.034 397.508 C 107.812 397.535,109.514 397.763,109.816 398.013 C 110.118 398.264,110.581 398.336,110.844 398.173 C 111.137 397.992,111.219 398.046,111.055 398.311 C 110.649 398.967,111.553 399.337,112.218 398.785 C 112.538 398.520,112.800 398.470,112.800 398.674 C 112.800 398.879,114.569 399.052,116.732 399.058 C 120.633 399.069,121.823 399.316,121.386 400.023 C 121.261 400.225,121.437 400.284,121.777 400.154 C 122.117 400.023,122.279 399.727,122.136 399.496 C 121.979 399.243,122.070 399.196,122.365 399.378 C 122.633 399.544,122.762 399.771,122.651 399.883 C 122.539 399.994,122.797 400.460,123.224 400.918 C 123.651 401.376,123.955 402.032,123.900 402.376 C 123.845 402.719,124.025 402.955,124.300 402.900 C 125.017 402.757,124.935 404.990,124.200 405.600 C 123.870 405.874,123.600 406.290,123.600 406.525 C 123.600 406.761,123.864 406.604,124.187 406.176 C 124.763 405.416,124.775 405.417,124.787 406.257 C 124.794 406.729,124.530 407.218,124.200 407.345 C 123.387 407.656,123.442 408.300,124.300 408.524 C 124.967 408.698,124.967 408.709,124.300 408.754 C 123.449 408.810,123.353 410.000,124.200 410.000 C 124.530 410.000,124.800 410.251,124.800 410.557 C 124.800 410.864,124.530 411.218,124.200 411.345 C 123.457 411.630,123.401 413.200,124.133 413.200 C 124.427 413.200,124.667 413.467,124.667 413.794 C 124.667 414.274,124.545 414.294,124.033 413.901 C 123.598 413.566,123.626 413.680,124.122 414.263 C 125.257 415.597,125.315 422.337,124.200 423.270 C 123.412 423.930,123.411 423.960,124.151 425.347 C 124.845 426.648,124.852 426.805,124.251 427.406 C 123.893 427.764,123.600 428.170,123.600 428.309 C 123.600 428.447,123.816 428.344,124.080 428.080 C 124.344 427.816,124.659 427.600,124.780 427.600 C 124.901 427.600,124.963 435.176,124.917 444.435 L 124.834 461.270 125.799 462.235 C 126.415 462.851,127.224 463.200,128.038 463.200 C 128.782 463.200,129.521 463.487,129.815 463.889 C 130.213 464.433,131.020 464.593,133.664 464.653 C 139.606 464.786,140.989 464.923,141.600 465.435 C 142.349 466.063,144.608 466.660,144.291 466.146 C 144.031 465.727,145.453 465.751,146.481 466.184 C 146.855 466.342,147.353 466.353,147.587 466.208 C 148.146 465.862,152.400 466.821,152.400 467.293 C 152.400 467.494,153.345 467.630,154.500 467.595 C 159.336 467.450,162.400 467.616,162.400 468.024 C 162.400 468.257,162.222 468.337,162.005 468.203 C 161.787 468.068,161.705 468.209,161.823 468.514 C 161.950 468.847,162.576 469.057,163.380 469.036 C 164.120 469.018,164.641 468.867,164.539 468.701 C 164.437 468.536,164.543 468.400,164.776 468.400 C 165.009 468.400,165.200 468.571,165.200 468.780 C 165.200 468.989,166.688 469.160,168.515 469.160 C 171.969 469.160,173.350 469.433,172.974 470.042 C 172.852 470.239,173.134 470.400,173.600 470.400 C 174.139 470.400,174.343 470.232,174.162 469.938 C 173.967 469.623,174.054 469.586,174.437 469.823 C 175.249 470.325,177.048 470.546,179.908 470.496 C 181.625 470.465,182.331 470.589,182.146 470.887 C 181.998 471.127,182.052 471.215,182.266 471.083 C 183.340 470.419,184.869 470.443,184.634 471.120 C 184.426 471.719,184.464 471.715,184.954 471.085 C 185.260 470.692,185.665 470.398,185.855 470.432 C 187.543 470.737,187.524 470.840,187.470 461.623 C 187.422 453.582,187.359 452.830,186.709 452.660 C 185.786 452.419,185.679 448.365,186.576 447.620 C 186.893 447.357,187.054 446.885,186.933 446.571 C 186.813 446.257,186.914 446.000,187.157 446.000 C 188.017 446.000,187.684 442.915,186.800 442.684 C 185.882 442.444,185.953 443.354,185.898 431.120 C 185.876 426.346,185.741 422.513,185.596 422.602 C 185.452 422.692,185.333 422.511,185.333 422.200 C 185.333 421.889,185.489 421.731,185.679 421.849 C 186.165 422.149,185.889 417.065,185.400 416.706 C 185.155 416.526,185.199 416.410,185.516 416.406 C 185.937 416.401,185.937 416.297,185.516 415.842 C 185.232 415.535,184.910 415.337,184.800 415.401 C 184.690 415.465,184.582 413.364,184.560 410.733 C 184.538 408.038,184.666 406.177,184.854 406.474 C 185.038 406.764,185.190 406.806,185.194 406.567 C 185.197 406.328,185.101 406.035,184.981 405.914 C 184.510 405.443,184.177 395.332,184.590 394.031 C 184.748 393.535,184.659 392.913,184.384 392.581 C 184.014 392.135,184.013 392.000,184.378 392.000 C 184.939 392.000,184.565 390.414,183.860 389.800 C 183.229 389.251,183.250 386.844,183.883 387.087 C 184.195 387.207,184.310 386.974,184.207 386.437 C 184.118 385.977,184.235 385.600,184.465 385.600 C 184.863 385.600,184.765 383.697,184.270 381.800 C 184.155 381.360,184.047 380.764,184.031 380.476 C 184.014 380.188,183.841 380.051,183.648 380.171 C 183.313 380.378,183.133 376.479,183.084 367.923 C 183.072 365.791,182.958 364.081,182.831 364.123 C 182.704 364.165,182.600 364.020,182.600 363.800 C 182.600 363.580,182.735 363.445,182.900 363.500 C 183.065 363.555,183.200 362.869,183.200 361.976 C 183.200 360.784,183.067 360.433,182.700 360.653 C 182.306 360.890,182.302 360.827,182.682 360.358 C 183.445 359.414,183.160 355.601,182.327 355.600 C 181.744 355.600,181.655 355.113,181.669 351.986 C 181.684 348.764,181.753 348.428,182.308 348.886 C 182.857 349.339,182.876 349.296,182.465 348.526 C 181.859 347.388,181.878 347.200,182.600 347.200 C 183.021 347.200,183.200 346.775,183.200 345.773 C 183.200 344.528,183.098 344.378,182.400 344.600 C 181.771 344.800,181.600 344.672,181.600 344.003 C 181.600 343.529,181.780 343.264,182.007 343.404 C 182.230 343.542,182.292 343.851,182.145 344.089 C 181.979 344.357,182.064 344.408,182.364 344.222 C 182.734 343.993,182.699 343.751,182.217 343.219 C 181.689 342.636,181.574 341.250,181.531 334.959 C 181.499 330.155,181.320 327.190,181.040 326.823 C 180.748 326.440,180.743 326.332,181.026 326.501 C 181.312 326.672,181.480 325.635,181.536 323.349 C 181.600 320.681,181.508 320.008,181.109 320.248 C 180.796 320.436,180.831 320.264,181.200 319.800 C 181.530 319.386,181.595 319.169,181.345 319.319 C 181.082 319.477,180.801 319.248,180.677 318.773 C 180.491 318.060,180.549 318.021,181.131 318.470 C 181.755 318.952,181.756 318.933,181.136 318.193 C 180.442 317.365,179.935 311.531,180.508 310.959 C 180.665 310.802,180.594 310.434,180.352 310.142 C 180.108 309.848,180.045 309.294,180.210 308.905 C 180.470 308.294,180.551 308.333,180.815 309.200 C 181.075 310.051,181.126 310.078,181.160 309.380 C 181.182 308.929,180.987 308.347,180.727 308.087 C 180.442 307.802,180.276 306.498,180.307 304.796 C 180.344 302.831,180.226 302.060,179.918 302.251 C 179.647 302.418,179.590 302.340,179.770 302.049 C 180.239 301.290,180.413 292.800,179.960 292.800 C 179.724 292.800,179.670 292.233,179.827 291.396 C 179.994 290.505,179.910 289.773,179.596 289.396 C 179.193 288.910,179.222 288.800,179.751 288.800 C 180.505 288.800,180.727 283.849,179.993 283.396 C 179.770 283.258,179.691 282.977,179.817 282.772 C 179.944 282.568,179.767 282.400,179.424 282.400 C 178.675 282.400,178.739 283.303,178.741 272.706 C 178.742 267.781,178.582 263.913,178.372 263.782 C 178.167 263.656,178.013 263.248,178.028 262.876 C 178.051 262.322,178.121 262.345,178.412 263.000 C 178.645 263.524,178.739 262.514,178.684 260.066 C 178.623 257.376,178.439 256.202,178.023 255.866 C 177.563 255.494,177.515 255.514,177.785 255.962 C 177.993 256.307,177.972 256.430,177.731 256.281 C 176.896 255.765,177.083 251.556,177.950 251.329 C 178.387 251.215,178.682 250.914,178.606 250.661 C 178.102 248.990,178.009 247.958,178.384 248.190 C 178.622 248.337,178.800 248.085,178.800 247.600 C 178.800 247.134,178.622 246.863,178.405 246.997 C 178.187 247.132,178.105 246.991,178.223 246.685 C 178.340 246.379,178.158 245.897,177.818 245.615 C 177.307 245.191,177.200 243.980,177.200 238.631 C 177.200 234.131,177.054 232.014,176.720 231.680 C 176.347 231.307,176.369 231.194,176.820 231.172 C 177.181 231.154,177.098 231.014,176.600 230.800 L 175.800 230.456 176.600 230.422 C 177.265 230.394,177.299 230.323,176.800 230.000 C 176.414 229.751,176.375 229.610,176.691 229.606 C 177.045 229.602,177.168 228.643,177.130 226.181 C 177.084 223.238,176.988 222.792,176.438 222.982 C 175.927 223.158,175.939 223.094,176.500 222.657 C 177.524 221.860,177.398 221.084,176.300 221.426 C 175.428 221.698,175.431 221.679,176.400 220.823 C 176.950 220.337,177.194 220.042,176.942 220.167 C 176.008 220.633,175.474 213.173,176.400 212.600 C 176.931 212.272,176.914 209.474,176.379 208.939 C 176.127 208.687,175.954 206.373,175.948 203.181 C 175.941 198.672,175.836 197.763,175.270 197.321 C 174.659 196.844,174.666 196.821,175.355 197.063 C 175.900 197.254,176.053 197.172,175.905 196.764 C 175.792 196.454,175.516 196.239,175.291 196.286 C 175.061 196.335,174.979 196.000,175.104 195.524 C 175.256 194.944,175.179 194.766,174.863 194.961 C 174.546 195.157,174.400 194.803,174.400 193.838 C 174.400 192.905,174.637 192.302,175.100 192.054 C 175.857 191.649,176.118 185.951,175.410 185.307 C 175.224 185.138,175.201 185.225,175.359 185.500 C 175.527 185.792,175.429 186.000,175.124 186.000 C 174.836 186.000,174.600 185.565,174.600 185.034 C 174.600 184.307,174.723 184.171,175.100 184.483 C 175.453 184.776,175.600 184.755,175.600 184.412 C 175.600 184.144,175.285 183.843,174.900 183.742 C 174.269 183.576,174.200 182.906,174.200 176.925 L 174.200 170.291 172.826 170.141 C 172.071 170.058,171.084 169.678,170.633 169.295 C 169.854 168.634,169.840 168.634,170.356 169.300 C 171.036 170.178,170.673 170.216,169.814 169.357 C 169.460 169.003,168.772 168.726,168.285 168.741 C 164.682 168.853,160.400 168.601,160.400 168.276 C 160.400 168.098,160.216 168.067,159.990 168.206 C 159.765 168.345,159.630 168.245,159.690 167.983 C 159.842 167.326,158.360 167.138,157.637 167.723 C 157.312 167.985,157.160 168.011,157.298 167.779 C 157.464 167.500,156.389 167.333,154.105 167.284 C 151.222 167.221,150.515 167.072,149.768 166.370 C 149.015 165.663,148.737 165.606,147.989 166.006 C 147.502 166.266,147.207 166.312,147.334 166.107 C 147.461 165.901,147.320 165.733,147.021 165.733 C 146.700 165.733,146.565 165.994,146.692 166.367 C 146.866 166.877,146.800 166.865,146.354 166.307 C 145.890 165.726,145.232 165.632,142.286 165.731 C 139.105 165.838,137.491 165.442,138.203 164.730 C 138.312 164.622,138.175 164.521,137.900 164.506 C 137.625 164.490,136.770 164.355,136.000 164.205 C 134.922 163.995,134.738 164.035,135.200 164.378 C 135.665 164.724,135.529 164.758,134.600 164.530 C 133.940 164.368,132.372 164.244,131.116 164.254 C 129.859 164.264,128.925 164.121,129.039 163.937 C 129.331 163.464,127.472 163.713,127.070 164.200 C 126.872 164.439,126.805 164.358,126.903 164.000 C 126.993 163.670,127.262 163.400,127.500 163.400 C 127.738 163.400,128.029 163.305,128.145 163.188 C 128.262 163.071,126.612 162.952,124.479 162.924 C 118.217 162.839,117.942 162.818,118.183 162.428 C 118.673 161.635,116.782 161.111,115.524 161.691 C 115.146 161.865,114.738 161.824,114.599 161.598 C 114.449 161.355,112.853 161.252,110.595 161.339 C 107.638 161.454,106.795 161.365,106.625 160.921 C 106.506 160.611,106.587 160.468,106.805 160.603 C 107.022 160.737,107.200 160.642,107.200 160.391 C 107.200 160.084,106.363 159.977,104.631 160.065 C 103.218 160.136,101.928 160.061,101.764 159.897 C 101.266 159.400,99.829 159.564,98.882 160.227 M124.800 260.288 C 124.800 260.569,124.649 260.800,124.464 260.800 C 123.822 260.800,123.105 263.887,123.337 265.648 C 123.701 268.403,123.758 270.776,123.467 271.067 C 122.720 271.814,123.204 274.400,124.100 274.446 C 124.777 274.481,124.827 274.538,124.300 274.676 C 123.812 274.803,123.600 275.258,123.600 276.174 C 123.600 276.897,123.482 278.352,123.337 279.407 C 123.184 280.524,123.226 281.231,123.437 281.100 C 123.646 280.971,123.800 282.793,123.800 285.398 C 123.800 287.886,123.665 289.839,123.501 289.737 C 123.244 289.580,123.285 292.226,123.734 304.862 C 123.770 305.887,123.665 306.641,123.500 306.539 C 123.335 306.437,123.200 306.734,123.200 307.200 C 123.200 307.666,123.371 307.942,123.579 307.813 C 123.797 307.678,123.865 307.966,123.739 308.489 C 123.618 308.990,123.455 309.940,123.377 310.600 L 123.235 311.800 123.543 310.600 C 123.746 309.809,123.843 310.696,123.826 313.200 C 123.812 315.290,123.673 317.096,123.518 317.212 C 123.363 317.329,123.375 319.129,123.544 321.212 C 123.712 323.296,123.781 326.080,123.695 327.400 C 123.610 328.720,123.499 335.920,123.448 343.400 C 123.391 351.756,123.198 357.281,122.946 357.728 C 122.383 358.730,119.373 358.547,119.453 357.516 C 119.516 356.694,118.711 356.755,118.328 357.600 C 118.097 358.111,118.052 358.104,118.028 357.550 C 118.006 357.045,117.577 356.902,116.100 356.905 C 110.470 356.918,109.510 356.813,109.743 356.205 C 110.042 355.424,109.087 355.608,108.728 356.400 C 108.532 356.833,108.448 356.749,108.428 356.100 C 108.396 355.083,108.263 355.031,107.174 355.614 C 106.748 355.842,106.400 355.872,106.400 355.682 C 106.400 355.491,105.455 355.324,104.300 355.310 C 100.464 355.266,100.062 355.204,99.429 354.571 C 99.083 354.226,98.800 354.136,98.800 354.371 C 98.800 354.607,98.609 354.800,98.376 354.800 C 98.143 354.800,98.051 354.640,98.172 354.445 C 98.293 354.250,97.763 354.132,96.996 354.184 C 95.403 354.291,95.180 353.704,96.396 352.603 C 97.149 351.922,97.154 351.852,96.496 351.312 C 96.113 350.998,96.025 350.855,96.301 350.994 C 96.606 351.149,96.954 350.848,97.191 350.224 C 97.405 349.661,97.765 349.200,97.990 349.200 C 98.216 349.200,98.400 349.009,98.400 348.776 C 98.400 348.543,98.192 348.481,97.938 348.638 C 97.638 348.824,97.586 348.747,97.789 348.417 C 97.971 348.124,97.870 347.745,97.551 347.518 C 97.130 347.217,97.170 347.180,97.723 347.359 C 98.336 347.557,98.418 347.410,98.259 346.398 C 98.155 345.741,98.247 345.095,98.462 344.961 C 98.678 344.828,98.753 344.456,98.630 344.133 C 98.467 343.710,98.607 343.612,99.136 343.780 C 99.624 343.935,99.867 343.810,99.867 343.406 C 99.867 343.073,99.637 342.800,99.357 342.800 C 99.077 342.800,98.746 342.637,98.623 342.437 C 98.500 342.238,98.804 342.150,99.299 342.242 C 99.795 342.334,99.974 342.302,99.698 342.170 C 99.421 342.039,99.325 341.722,99.483 341.466 C 99.641 341.210,99.832 340.190,99.906 339.200 C 99.981 338.210,100.239 337.220,100.479 337.000 C 100.787 336.719,100.822 336.768,100.597 337.162 C 100.380 337.541,100.428 337.630,100.745 337.434 C 101.002 337.275,101.117 336.990,101.000 336.800 C 100.883 336.610,100.957 336.350,101.166 336.221 C 101.374 336.092,101.466 335.554,101.370 335.024 C 101.269 334.469,101.468 333.790,101.839 333.418 C 102.192 333.065,102.543 332.119,102.617 331.317 C 102.693 330.505,103.039 329.698,103.399 329.497 C 103.911 329.210,103.945 329.016,103.566 328.559 C 103.176 328.089,103.209 328.029,103.743 328.234 C 104.109 328.374,104.400 328.289,104.400 328.043 C 104.400 327.799,104.250 327.600,104.067 327.600 C 103.883 327.600,103.733 327.338,103.733 327.018 C 103.733 326.697,103.857 326.512,104.008 326.605 C 104.160 326.699,104.292 325.926,104.301 324.888 C 104.337 321.029,104.367 320.903,105.300 320.620 C 105.840 320.456,106.001 320.264,105.703 320.141 C 105.350 319.995,105.321 319.722,105.602 319.197 C 105.819 318.790,105.896 318.193,105.771 317.869 C 105.647 317.546,105.741 317.160,105.979 317.013 C 106.218 316.865,106.286 316.532,106.130 316.272 C 105.974 316.013,106.166 316.060,106.557 316.377 C 107.223 316.918,107.261 316.818,107.162 314.777 C 107.061 312.692,107.098 312.603,108.028 312.675 C 108.563 312.716,108.775 312.656,108.500 312.541 C 108.225 312.427,108.000 312.158,108.000 311.943 C 108.000 311.728,108.143 311.641,108.317 311.749 C 108.491 311.856,108.623 311.102,108.609 310.072 C 108.584 308.202,109.102 306.292,109.558 306.574 C 109.691 306.656,109.826 306.292,109.858 305.764 C 109.890 305.217,109.744 304.911,109.516 305.052 C 109.297 305.188,109.430 304.821,109.813 304.237 C 110.195 303.653,110.409 303.076,110.288 302.954 C 110.166 302.833,110.417 302.383,110.845 301.955 C 111.362 301.438,111.593 300.723,111.532 299.825 C 111.441 298.465,112.206 297.033,112.821 297.413 C 113.003 297.525,113.124 297.253,113.091 296.809 C 113.057 296.364,112.843 295.997,112.615 295.994 C 112.387 295.991,112.423 295.846,112.695 295.673 C 113.027 295.463,113.146 294.542,113.056 292.880 C 112.982 291.516,113.085 290.400,113.285 290.400 C 113.484 290.400,113.517 290.189,113.358 289.932 C 113.166 289.622,113.283 289.546,113.705 289.708 C 114.192 289.895,114.336 289.700,114.320 288.876 C 114.284 287.056,114.387 286.398,114.700 286.447 C 115.735 286.611,116.193 286.383,115.600 286.000 C 115.200 285.742,115.167 285.610,115.500 285.606 C 115.800 285.602,116.000 285.060,116.000 284.249 C 116.000 283.294,116.262 282.723,116.895 282.304 C 117.667 281.791,117.715 281.621,117.246 281.055 C 116.787 280.503,116.788 280.395,117.251 280.368 C 117.656 280.345,117.669 280.284,117.300 280.135 C 117.025 280.024,116.800 279.758,116.800 279.543 C 116.800 279.328,116.953 279.247,117.140 279.363 C 117.326 279.478,117.494 279.038,117.513 278.386 C 117.557 276.821,117.979 275.540,118.371 275.782 C 118.544 275.889,118.717 274.766,118.757 273.288 C 118.797 271.810,119.004 270.540,119.217 270.466 C 119.431 270.392,119.484 270.136,119.337 269.898 C 119.162 269.614,119.334 269.557,119.834 269.733 C 120.577 269.994,120.576 269.984,119.824 269.401 C 119.144 268.875,119.132 268.800,119.725 268.800 C 120.244 268.800,120.379 268.495,120.301 267.500 C 120.234 266.633,120.366 266.233,120.700 266.300 C 120.975 266.355,121.200 266.209,121.200 265.976 C 121.200 265.743,121.336 265.637,121.502 265.740 C 121.669 265.843,121.804 264.818,121.802 263.463 C 121.799 259.634,122.173 258.784,123.624 259.331 C 124.271 259.576,124.800 260.006,124.800 260.288 M179.562 284.645 C 178.977 285.350,178.693 285.144,179.032 284.260 C 179.171 283.899,179.454 283.710,179.661 283.838 C 179.886 283.977,179.846 284.303,179.562 284.645 M203.788 438.200 C 203.788 452.280,203.839 457.982,203.900 450.871 C 203.961 443.760,203.961 432.240,203.900 425.271 C 203.838 418.302,203.788 424.120,203.788 438.200 " stroke="none" fill="#fc9404" fill-rule="evenodd"></path><path id="path2" d="M232.200 2.292 C 230.406 2.378,229.248 2.628,228.976 2.986 C 228.648 3.418,226.978 3.574,221.647 3.673 C 215.567 3.785,214.696 3.884,214.351 4.500 C 214.008 5.115,213.278 5.200,208.368 5.200 C 203.765 5.200,202.734 5.306,202.545 5.800 C 202.418 6.130,201.898 6.400,201.390 6.400 C 200.078 6.400,199.200 6.801,199.200 7.399 C 199.200 7.682,198.753 8.025,198.207 8.162 C 197.661 8.299,196.948 8.927,196.622 9.557 C 196.296 10.187,195.753 10.809,195.415 10.939 C 195.077 11.069,194.800 11.451,194.800 11.787 C 194.800 12.124,194.530 12.400,194.200 12.400 C 193.870 12.400,193.600 12.720,193.600 13.111 C 193.600 13.502,193.240 14.130,192.800 14.507 C 192.165 15.051,192.000 15.687,192.000 17.596 C 192.000 19.466,191.867 20.000,191.400 20.000 C 190.614 20.000,190.716 19.307,190.368 27.000 C 190.199 30.740,189.940 34.544,189.793 35.453 C 189.623 36.498,189.686 37.206,189.962 37.377 C 190.658 37.806,190.519 41.869,189.800 42.145 C 189.296 42.338,189.200 43.590,189.200 49.987 C 189.200 57.067,189.144 57.656,188.400 58.400 C 187.665 59.135,187.600 59.733,187.600 65.800 C 187.600 71.165,187.496 72.400,187.045 72.400 C 186.184 72.400,186.018 74.243,185.943 84.600 C 185.890 91.878,185.743 94.391,185.337 94.989 C 185.041 95.423,184.800 96.707,184.800 97.842 C 184.800 99.570,184.670 99.941,184.000 100.116 C 183.560 100.231,183.200 100.612,183.200 100.963 C 183.200 101.420,182.818 101.600,181.849 101.600 C 181.106 101.600,180.289 101.852,180.033 102.161 C 179.714 102.544,178.424 102.766,175.955 102.861 C 173.025 102.974,172.269 103.132,171.952 103.700 C 171.682 104.183,171.069 104.400,169.976 104.400 C 168.887 104.400,168.178 104.650,167.707 105.200 C 167.183 105.812,166.527 106.000,164.911 106.000 C 163.301 106.000,162.800 106.142,162.800 106.600 C 162.800 107.084,162.164 107.201,159.500 107.205 C 155.678 107.212,154.400 107.473,154.400 108.247 C 154.400 108.626,153.896 108.800,152.800 108.800 C 151.716 108.800,151.200 108.976,151.200 109.345 C 151.200 109.730,150.414 109.954,148.539 110.104 C 146.678 110.253,145.770 110.511,145.519 110.959 C 145.247 111.445,144.528 111.600,142.543 111.600 C 140.304 111.600,139.896 111.710,139.726 112.363 C 139.616 112.783,139.183 113.216,138.763 113.326 C 137.624 113.623,137.652 117.961,138.800 119.000 C 139.540 119.669,139.600 120.232,139.600 126.462 C 139.600 132.185,139.690 133.200,140.200 133.200 C 140.706 133.200,140.800 134.115,140.800 139.037 C 140.800 144.538,140.846 144.887,141.600 145.084 C 142.272 145.260,142.400 145.630,142.400 147.400 C 142.400 149.170,142.528 149.540,143.200 149.716 C 143.783 149.868,144.000 150.262,144.000 151.163 C 144.000 151.996,144.196 152.400,144.600 152.400 C 144.930 152.400,145.200 152.687,145.200 153.037 C 145.200 153.388,145.560 153.769,146.000 153.884 C 146.440 153.999,146.800 154.342,146.800 154.647 C 146.800 154.951,147.120 155.200,147.511 155.200 C 147.902 155.200,148.530 155.560,148.907 156.000 C 149.471 156.659,150.087 156.800,152.396 156.800 C 154.705 156.800,155.347 156.947,156.034 157.634 C 157.163 158.763,165.010 158.660,166.291 157.500 C 166.958 156.895,167.928 156.800,173.442 156.800 C 178.180 156.800,180.025 156.660,180.611 156.254 C 182.286 155.095,185.950 155.017,186.374 156.132 C 186.581 156.677,186.942 157.240,187.175 157.385 C 187.447 157.553,187.600 160.027,187.600 164.261 C 187.600 170.538,187.641 170.886,188.400 171.084 C 189.162 171.283,189.200 171.630,189.200 178.404 C 189.200 184.209,189.305 185.555,189.773 185.734 C 190.233 185.911,190.372 187.311,190.473 192.810 C 190.584 198.787,190.690 199.732,191.300 200.177 C 191.918 200.628,192.000 201.467,192.000 207.348 C 192.000 213.513,192.059 214.059,192.800 214.693 C 193.541 215.327,193.600 215.873,193.600 222.040 C 193.600 227.474,193.711 228.794,194.200 229.200 C 194.684 229.601,194.800 230.841,194.800 235.589 C 194.800 241.149,195.220 244.000,196.039 244.000 C 196.239 244.000,196.400 246.919,196.400 250.538 C 196.400 256.568,196.462 257.132,197.200 257.800 C 197.939 258.469,198.000 259.032,198.000 265.213 C 198.000 270.671,198.110 271.994,198.600 272.400 C 199.087 272.804,199.200 274.092,199.200 279.253 C 199.200 285.113,199.262 285.661,200.000 286.293 C 200.743 286.929,200.800 287.473,200.800 293.901 C 200.800 299.687,200.899 300.863,201.400 301.055 C 201.850 301.228,202.000 301.951,202.002 303.943 C 202.006 310.055,202.510 315.600,203.061 315.600 C 203.485 315.600,203.600 316.707,203.600 320.800 C 203.600 325.467,203.682 326.082,204.400 326.800 C 205.099 327.499,205.200 328.133,205.200 331.813 C 205.200 335.188,205.319 336.071,205.800 336.255 C 206.130 336.382,206.400 336.812,206.400 337.210 C 206.400 338.362,206.839 339.200,207.443 339.200 C 207.850 339.200,208.000 339.777,208.000 341.338 C 208.000 342.968,208.190 343.648,208.800 344.200 C 209.336 344.685,209.600 345.432,209.600 346.462 C 209.600 347.562,209.771 348.000,210.200 348.000 C 210.604 348.000,210.800 348.404,210.800 349.237 C 210.800 350.138,211.017 350.532,211.600 350.684 C 212.224 350.847,212.400 351.230,212.400 352.420 C 212.400 353.595,212.584 354.005,213.200 354.200 C 213.715 354.363,214.000 354.805,214.000 355.440 C 214.000 355.982,214.270 356.529,214.600 356.655 C 214.930 356.782,215.200 357.212,215.200 357.610 C 215.200 358.762,215.639 359.600,216.243 359.600 C 216.549 359.600,216.800 359.960,216.800 360.400 C 216.800 360.933,217.067 361.200,217.600 361.200 C 218.248 361.200,218.400 361.467,218.400 362.600 C 218.400 363.578,218.581 364.000,219.000 364.000 C 219.330 364.000,219.600 364.287,219.600 364.637 C 219.600 364.988,219.960 365.369,220.400 365.484 C 220.917 365.619,221.200 366.030,221.200 366.643 C 221.200 367.166,221.560 367.818,222.000 368.093 C 222.440 368.368,222.800 368.721,222.800 368.878 C 222.800 369.303,224.776 371.200,225.218 371.200 C 225.428 371.200,225.600 371.487,225.600 371.837 C 225.600 372.188,225.960 372.569,226.400 372.684 C 226.840 372.799,227.200 373.148,227.200 373.459 C 227.200 373.770,227.470 374.129,227.800 374.255 C 228.130 374.382,228.400 374.736,228.400 375.043 C 228.400 375.349,228.760 375.600,229.200 375.600 C 229.733 375.600,230.000 375.867,230.000 376.400 C 230.000 376.933,230.267 377.200,230.800 377.200 C 231.240 377.200,231.600 377.462,231.600 377.782 C 231.600 378.130,232.162 378.469,233.000 378.626 C 233.802 378.777,234.400 379.126,234.400 379.445 C 234.400 379.813,234.872 380.000,235.800 380.000 C 236.933 380.000,237.200 380.152,237.200 380.800 C 237.200 381.333,237.467 381.600,238.000 381.600 C 238.450 381.600,238.800 381.867,238.800 382.210 C 238.800 382.545,239.233 382.984,239.761 383.185 C 240.290 383.386,240.840 383.742,240.985 383.975 C 241.129 384.209,241.687 384.400,242.224 384.400 C 242.792 384.400,243.200 384.633,243.200 384.957 C 243.200 385.594,244.049 386.000,245.384 386.000 C 245.889 386.000,246.527 386.272,246.803 386.604 C 247.078 386.936,247.989 387.317,248.827 387.451 C 249.665 387.585,250.446 387.943,250.563 388.247 C 250.704 388.616,251.444 388.800,252.787 388.800 C 254.533 388.800,254.800 388.906,254.800 389.600 C 254.800 390.329,255.067 390.400,257.800 390.400 C 260.060 390.400,260.800 390.534,260.800 390.943 C 260.800 391.547,263.979 392.000,268.216 392.000 C 270.068 392.000,270.774 392.155,270.945 392.600 C 271.269 393.446,289.641 393.501,290.484 392.659 C 290.855 392.288,292.784 392.025,296.613 391.823 C 300.767 391.604,302.282 391.384,302.520 390.964 C 302.734 390.587,303.561 390.400,305.020 390.400 C 306.933 390.400,307.200 390.302,307.200 389.600 C 307.200 388.872,307.467 388.800,310.171 388.800 C 312.279 388.800,313.317 388.626,313.743 388.200 C 314.096 387.847,315.074 387.600,316.121 387.600 C 318.695 387.600,320.400 387.182,320.400 386.550 C 320.400 386.196,320.864 386.000,321.704 386.000 C 322.574 386.000,323.174 385.734,323.507 385.200 C 323.874 384.613,324.440 384.400,325.632 384.400 C 326.543 384.400,327.521 384.136,327.857 383.800 C 328.192 383.466,329.169 383.200,330.066 383.200 C 331.338 383.200,331.719 383.033,331.884 382.400 C 332.043 381.794,332.430 381.600,333.484 381.600 C 334.538 381.600,334.925 381.406,335.084 380.800 C 335.240 380.203,335.630 380.000,336.619 380.000 C 338.056 380.000,340.756 378.509,340.783 377.700 C 340.793 377.398,341.356 377.200,342.200 377.200 C 343.333 377.200,343.600 377.048,343.600 376.400 C 343.600 375.867,343.867 375.600,344.400 375.600 C 344.840 375.600,345.200 375.353,345.200 375.052 C 345.200 374.696,345.857 374.430,347.076 374.293 C 348.107 374.176,349.142 373.827,349.376 373.516 C 349.609 373.205,350.115 372.832,350.500 372.688 C 350.885 372.543,351.200 372.149,351.200 371.813 C 351.200 371.433,351.565 371.200,352.160 371.200 C 352.834 371.200,353.368 370.782,353.947 369.800 C 354.545 368.786,355.052 368.400,355.787 368.400 C 356.533 368.400,356.800 368.190,356.800 367.600 C 356.800 367.067,357.067 366.800,357.600 366.800 C 358.040 366.800,358.400 366.551,358.400 366.247 C 358.400 365.942,358.760 365.599,359.200 365.484 C 359.640 365.369,360.000 364.988,360.000 364.637 C 360.000 364.287,360.270 364.000,360.600 364.000 C 360.930 364.000,361.200 363.750,361.200 363.445 C 361.200 363.126,361.798 362.777,362.600 362.626 C 363.438 362.469,364.000 362.130,364.000 361.782 C 364.000 361.462,364.360 361.200,364.800 361.200 C 365.333 361.200,365.600 360.933,365.600 360.400 C 365.600 359.867,365.867 359.600,366.400 359.600 C 367.076 359.600,367.200 359.333,367.200 357.880 C 367.200 356.934,367.396 355.964,367.635 355.725 C 367.948 355.412,367.948 355.215,367.635 355.022 C 367.396 354.874,367.200 354.297,367.200 353.739 C 367.200 353.062,366.935 352.656,366.400 352.516 C 365.960 352.401,365.600 352.067,365.600 351.773 C 365.600 351.480,365.375 351.096,365.100 350.920 C 364.502 350.537,363.051 348.482,362.686 347.500 C 362.542 347.115,362.149 346.800,361.813 346.800 C 361.467 346.800,361.200 346.452,361.200 346.000 C 361.200 345.556,360.933 345.200,360.600 345.200 C 360.270 345.200,360.000 344.913,360.000 344.563 C 360.000 344.212,359.640 343.831,359.200 343.716 C 358.760 343.601,358.400 343.182,358.400 342.786 C 358.400 341.638,357.960 340.800,357.357 340.800 C 357.051 340.800,356.800 340.440,356.800 340.000 C 356.800 339.556,356.533 339.200,356.200 339.200 C 355.870 339.200,355.600 338.930,355.600 338.600 C 355.600 338.267,355.244 338.000,354.800 338.000 C 354.278 338.000,354.000 337.733,354.000 337.233 C 354.000 336.041,353.569 335.200,352.957 335.200 C 352.651 335.200,352.400 334.840,352.400 334.400 C 352.400 333.956,352.133 333.600,351.800 333.600 C 351.470 333.600,351.200 333.313,351.200 332.963 C 351.200 332.612,350.840 332.231,350.400 332.116 C 349.957 332.000,349.600 331.570,349.600 331.153 C 349.600 330.667,349.317 330.400,348.800 330.400 C 348.152 330.400,348.000 330.133,348.000 329.000 C 348.000 328.230,347.829 327.600,347.621 327.600 C 347.070 327.600,345.200 325.788,345.200 325.254 C 345.200 325.004,344.840 324.800,344.400 324.800 C 343.867 324.800,343.600 324.533,343.600 324.000 C 343.600 323.560,343.367 323.200,343.083 323.200 C 342.798 323.200,342.393 322.615,342.183 321.900 C 341.890 320.904,341.547 320.571,340.719 320.475 C 340.073 320.401,339.539 320.039,339.392 319.575 C 339.257 319.149,338.907 318.800,338.616 318.800 C 338.324 318.800,337.990 318.550,337.872 318.244 C 337.397 317.006,328.495 317.116,328.078 318.365 C 327.999 318.604,327.588 318.800,327.167 318.800 C 326.667 318.800,326.400 319.078,326.400 319.600 C 326.400 320.118,326.133 320.400,325.643 320.400 C 325.226 320.400,324.792 320.644,324.677 320.943 C 324.563 321.242,323.913 321.597,323.234 321.733 C 322.503 321.879,322.000 322.228,322.000 322.590 C 322.000 323.005,321.605 323.200,320.763 323.200 C 319.862 323.200,319.468 323.417,319.316 324.000 C 319.200 324.443,318.770 324.800,318.353 324.800 C 317.939 324.800,317.600 325.070,317.600 325.400 C 317.600 325.770,317.224 326.000,316.619 326.000 C 315.467 326.000,313.600 326.782,313.600 327.264 C 313.600 327.449,312.953 327.600,312.163 327.600 C 311.062 327.600,310.676 327.787,310.516 328.400 C 310.341 329.070,309.970 329.200,308.230 329.200 C 307.023 329.200,305.828 329.446,305.376 329.787 C 304.240 330.647,295.784 330.658,295.455 329.800 C 295.289 329.367,294.610 329.200,293.013 329.200 C 291.773 329.200,290.800 329.020,290.800 328.791 C 290.800 328.567,290.312 328.162,289.715 327.891 C 288.371 327.283,286.800 325.861,286.800 325.254 C 286.800 325.004,286.440 324.800,286.000 324.800 C 285.556 324.800,285.200 324.533,285.200 324.200 C 285.200 323.870,284.930 323.600,284.600 323.600 C 284.270 323.600,284.000 323.252,284.000 322.827 C 284.000 322.402,283.640 321.940,283.200 321.800 C 282.760 321.660,282.400 321.288,282.400 320.973 C 282.400 320.658,282.130 320.400,281.800 320.400 C 281.470 320.400,281.200 320.055,281.200 319.633 C 281.200 318.441,280.769 317.600,280.157 317.600 C 279.792 317.600,279.600 317.139,279.600 316.262 C 279.600 315.432,279.296 314.649,278.800 314.200 C 278.110 313.576,278.000 312.968,278.000 309.781 C 278.000 307.053,277.859 306.032,277.462 305.879 C 277.090 305.736,276.849 304.531,276.685 301.993 C 276.523 299.498,276.246 298.093,275.823 297.626 C 275.313 297.062,275.200 295.764,275.200 290.469 C 275.200 284.533,275.134 283.934,274.400 283.200 C 273.667 282.467,273.600 281.867,273.600 276.049 C 273.600 271.058,273.479 269.597,273.033 269.228 C 272.596 268.865,272.436 267.220,272.333 262.020 C 272.220 256.286,272.096 255.167,271.500 254.510 C 270.894 253.841,270.800 252.868,270.800 247.272 C 270.800 241.240,270.746 240.773,270.000 240.307 C 269.250 239.839,269.200 239.374,269.200 232.924 C 269.200 227.372,269.089 225.978,268.628 225.720 C 268.176 225.467,268.030 223.989,267.928 218.667 C 267.817 212.808,267.709 211.868,267.100 211.423 C 266.482 210.972,266.400 210.133,266.400 204.252 C 266.400 198.087,266.341 197.541,265.600 196.907 C 264.862 196.275,264.800 195.727,264.800 189.800 C 264.800 184.878,264.666 183.187,264.228 182.561 C 263.801 181.952,263.623 180.040,263.528 175.039 C 263.417 169.207,263.309 168.267,262.700 167.823 C 262.084 167.373,262.000 166.546,262.000 160.918 C 262.000 155.032,261.936 154.466,261.200 153.800 C 260.560 153.221,260.400 152.568,260.400 150.538 L 260.400 148.000 263.551 148.000 C 265.864 148.000,266.834 147.840,267.200 147.400 C 267.590 146.930,268.751 146.794,272.549 146.771 C 278.058 146.738,281.544 146.339,281.941 145.695 C 282.115 145.414,284.599 145.210,288.865 145.128 C 294.524 145.019,295.634 144.895,296.291 144.300 C 296.958 143.695,297.928 143.600,303.442 143.600 C 308.192 143.600,310.024 143.460,310.611 143.052 C 311.169 142.665,313.303 142.451,317.893 142.321 C 323.221 142.170,324.518 142.017,325.124 141.469 C 325.721 140.928,326.716 140.800,330.309 140.800 C 334.224 140.800,334.818 140.709,335.287 140.040 C 335.580 139.621,336.265 139.216,336.810 139.140 L 337.800 139.000 337.800 132.271 C 337.800 126.279,337.723 125.500,337.100 125.151 C 336.476 124.803,336.400 124.023,336.400 118.009 C 336.400 112.888,336.270 111.127,335.862 110.719 C 335.474 110.331,335.262 108.301,335.101 103.414 C 334.917 97.855,334.763 96.562,334.239 96.179 C 333.734 95.810,333.600 94.942,333.600 92.056 C 333.600 88.933,333.483 88.283,332.800 87.600 C 332.360 87.160,332.000 86.554,332.000 86.254 C 332.000 85.084,321.752 85.058,320.400 86.225 C 319.977 86.590,317.879 86.780,313.271 86.871 C 307.551 86.984,306.694 87.087,306.351 87.700 C 306.004 88.322,305.235 88.400,299.457 88.400 C 294.357 88.400,292.785 88.527,292.176 88.987 C 291.602 89.422,290.149 89.585,286.600 89.616 C 281.112 89.664,277.653 90.068,277.259 90.705 C 277.083 90.989,274.532 91.190,270.060 91.273 C 264.017 91.384,263.069 91.489,262.623 92.100 C 262.000 92.953,256.090 93.130,255.280 92.320 C 254.961 92.001,254.800 90.258,254.800 87.120 C 254.800 82.933,254.710 82.310,254.000 81.600 C 253.265 80.865,253.200 80.267,253.200 74.229 C 253.200 68.921,253.085 67.542,252.600 67.057 C 252.138 66.595,251.993 65.369,251.971 61.729 C 251.937 56.221,251.515 52.705,250.862 52.487 C 250.538 52.379,250.400 50.388,250.400 45.829 C 250.400 39.832,250.338 39.267,249.600 38.600 C 248.861 37.931,248.800 37.368,248.800 31.187 C 248.800 25.729,248.690 24.406,248.200 24.000 C 247.721 23.602,247.599 22.404,247.596 18.051 C 247.591 11.741,247.325 9.600,246.548 9.600 C 246.125 9.600,246.000 8.788,246.000 6.050 L 246.000 2.500 244.750 2.250 C 243.525 2.005,237.750 2.024,232.200 2.292 " stroke="none" fill="#040404" fill-rule="evenodd"></path><path id="path3" d="" stroke="none" fill="#1004404" fill-rule="evenodd"></path><path id="path4" d="" stroke="none" fill="#3c5004" fill-rule="evenodd"></path></g></svg>